<svg version="1.1" id="Layer_1" xmlns="http://www.w3.org/2000/svg" x="0" y="0" viewBox="0 0 1440 1100" xml:space="preserve"><style>.st1{fill:none}.st2,.st3{fill-rule:evenodd;clip-rule:evenodd;fill:#120667}.st3{fill:#0d0554}.st4{fill:#120667}.st14,.st20{fill-rule:evenodd;clip-rule:evenodd;fill:#627aef}.st20{fill:#0c022f}.st22{fill:#0d0554}.st30{fill:none;stroke:#2828ad;stroke-width:.5}.st38{fill:#0c022f}.st39{fill:#2828ad}.st40{fill-rule:evenodd;clip-rule:evenodd;fill:#200882}.st47{fill:#050619}.st55{fill:#fff}.st63{fill:#200882}</style><linearGradient id="Path_1_" gradientUnits="userSpaceOnUse" x1="408.733" y1="948.086" x2="408.001" y2="947.787" gradientTransform="matrix(68.9999 0 0 -62 -27664.975 59365)"><stop offset="0" stop-color="#0d0554"/><stop offset=".15" stop-color="#0d0554"/><stop offset="1" stop-color="#0c033c"/></linearGradient><path id="Path_15_" d="M554.4 561.4c-1.3-1.5-3.1-2.4-5-2.4-1.6 0-3.1.6-4.3 1.6l-37 32.5c-1.4 1.3-2.3 3.1-2.3 5L487 614.6l5.4 6.4 18.5-16.2c2.1.5 4.3 0 5.9-1.4l37-32.5c2.7-2.4 3-6.7.6-9.5z" fill="url(#Path_1_)"/><path class="st1" d="M0 0h1440v1100H0V0z"/><path class="st2" d="M619.6 528.9l7-10.4 10.4 7-7 10.4-10.4-7zm-148.3-39.5l4-6 6 4-4 6-6-4z"/><circle class="st2" cx="321" cy="405" r="5"/><circle class="st2" cx="272.5" cy="624.5" r="3.5"/><path class="st2" d="M527 400h12v12h-12v-12z"/><circle transform="rotate(-40.77 1156.138 452.415)" class="st2" cx="1156.1" cy="452.4" r="7.4"/><path class="st2" d="M1046.2 343l3.4-5.1 5.1 3.4-3.4 5.1-5.1-3.4zM901.6 216.7l7.2-4.6 4.6 7.2-7.2 4.6-4.6-7.2zm175.6 304.9l9.6-9.6 9.6 9.6-9.6 9.6-9.6-9.6z"/><circle class="st2" cx="1225.5" cy="719.5" r="3.5"/><path class="st3" d="M389 902h117v28H389v-28z"/><path class="st4" d="M1016.9 840.8c-85.1 24.1-174-24.3-198.5-108.1s23.3-174.6 108.5-198.8c85.1-24.1 175.3 27.6 199.8 111.4 24.5 83.9-24.7 171.4-109.8 195.5z"/><linearGradient id="SVGID_1_" gradientUnits="userSpaceOnUse" x1="413.21" y1="946.483" x2="413.21" y2="945.483" gradientTransform="matrix(320.9995 0 0 -319.0002 -131667.797 302456.188)"><stop offset="0" stop-color="#0c022f" stop-opacity="0"/><stop offset=".65" stop-color="#0c022f" stop-opacity=".72"/><stop offset="1" stop-color="#0c022f"/></linearGradient><path d="M1016.9 840.8c-85.1 24.1-174-24.3-198.5-108.1s23.3-174.6 108.5-198.8c85.1-24.1 175.3 27.6 199.8 111.4 24.5 83.9-24.7 171.4-109.8 195.5z" fill="url(#SVGID_1_)"/><radialGradient id="SVGID_2_" cx="413.236" cy="946.102" r=".636" gradientTransform="matrix(318.9997 0 0 -319.0002 -130838.914 302456.188)" gradientUnits="userSpaceOnUse"><stop offset="0" stop-color="#0c022f" stop-opacity="0"/><stop offset=".08" stop-color="#0c022f" stop-opacity="0"/><stop offset=".56" stop-color="#0c022f" stop-opacity=".49"/><stop offset="1" stop-color="#0c022f"/></radialGradient><path d="M1016.9 840.8c-85.1 24.1-174-24.3-198.5-108.1s23.3-174.6 108.5-198.8c85.1-24.1 175.3 27.6 199.8 111.4 24.5 83.9-24.7 171.4-109.8 195.5z" fill="url(#SVGID_2_)"/><radialGradient id="SVGID_3_" cx="410.154" cy="948.138" r="0" gradientTransform="matrix(318.9997 0 0 -319.0002 -130838.914 302456.188)" gradientUnits="userSpaceOnUse"><stop offset="0" stop-color="#0c022f" stop-opacity="0"/><stop offset=".08" stop-color="#0c022f" stop-opacity="0"/><stop offset=".56" stop-color="#0c022f" stop-opacity=".49"/><stop offset="1" stop-color="#0c022f"/></radialGradient><linearGradient id="SVGID_4_" gradientUnits="userSpaceOnUse" x1="411.943" y1="947.662" x2="411.439" y2="946.567" gradientTransform="matrix(138 0 0 -123 -55566 117331)"><stop offset="0" stop-color="#120667"/><stop offset=".6" stop-color="#0f0346"/><stop offset="1" stop-color="#0d0235"/></linearGradient><path d="M1168 830.9v-9.4c0-1.4 1.1-2.5 2.5-2.5h61.7c1.4 0 2.5 1.1 2.5 2.5v9.4h53.7c.9 0 1.6.7 1.6 1.6V942h-138V832.5c0-.9.7-1.6 1.6-1.6h14.4z" fill="url(#SVGID_4_)"/><linearGradient id="SVGID_5_" gradientUnits="userSpaceOnUse" x1="411.579" y1="947.121" x2="412.579" y2="947.121" gradientTransform="matrix(170.9999 0 0 -95 -69227.953 90871)"><stop offset="0" stop-color="#160c77"/><stop offset=".45" stop-color="#110865"/><stop offset="1" stop-color="#0d0554"/></linearGradient><path d="M1152 942h136.8l34.1-93.2c.1-.2.1-.3.1-.5 0-.7-.6-1.3-1.3-1.3h-143.1c-.6 0-1.1.4-1.3 1l-25.3 94z" fill="url(#SVGID_5_)"/><linearGradient id="SVGID_6_" gradientUnits="userSpaceOnUse" x1="404.842" y1="956.537" x2="404.842" y2="956.537" gradientTransform="matrix(170.9999 0 0 -95 -69227.953 90871)"><stop offset="0" stop-color="#160c77"/><stop offset=".45" stop-color="#110865"/><stop offset="1" stop-color="#0d0554"/></linearGradient><linearGradient id="SVGID_7_" gradientUnits="userSpaceOnUse" x1="407.875" y1="946.69" x2="407.775" y2="945.715" gradientTransform="matrix(62 0 0 -218 -24123 207137)"><stop offset="0" stop-color="#120667"/><stop offset=".36" stop-color="#10065f"/><stop offset="1" stop-color="#0d0554"/></linearGradient><path d="M1193 755h-54.9l-7.1 13.3V973h62V755z" fill="url(#SVGID_7_)"/><linearGradient id="SVGID_8_" gradientUnits="userSpaceOnUse" x1="376.832" y1="-106.441" x2="368.06" y2="-404.401" gradientTransform="matrix(62 0 0 -218 -24116 207137)"><stop offset="0" stop-color="#120667"/><stop offset=".36" stop-color="#10065f"/><stop offset="1" stop-color="#0d0554"/></linearGradient><path d="M1138 755h62v218h-62V755z" fill-rule="evenodd" clip-rule="evenodd" fill="url(#SVGID_8_)"/><linearGradient id="SVGID_9_" gradientUnits="userSpaceOnUse" x1="408.961" y1="946.632" x2="408.886" y2="945.766" gradientTransform="matrix(74 0 0 -218 -29158 207137)"><stop offset="0" stop-color="#120556"/><stop offset=".16" stop-color="#120556"/><stop offset=".21" stop-color="#120554"/><stop offset="1" stop-color="#0c0233"/></linearGradient><path d="M1138 755l-74 95.5V973h74V755z" fill="url(#SVGID_9_)"/><path class="st14" d="M1010 745h71v162h-71V745z"/><linearGradient id="SVGID_10_" gradientUnits="userSpaceOnUse" x1="408.777" y1="946.976" x2="408.584" y2="946.036" gradientTransform="matrix(71 0 0 -162 -27970 154151)"><stop offset="0" stop-color="#150b71" stop-opacity=".16"/><stop offset=".22" stop-color="#120967" stop-opacity=".46"/><stop offset=".5" stop-color="#0f075c" stop-opacity=".76"/><stop offset=".77" stop-color="#0e0556" stop-opacity=".94"/><stop offset="1" stop-color="#0d0554"/></linearGradient><path d="M1010 745h71v162h-71V745z" fill-rule="evenodd" clip-rule="evenodd" fill="url(#SVGID_10_)"/><linearGradient id="SVGID_11_" gradientUnits="userSpaceOnUse" x1="376.774" y1="-108.463" x2="368.002" y2="-406.424" gradientTransform="matrix(62 0 0 -218 -24240 207137)"><stop offset="0" stop-color="#120667"/><stop offset=".36" stop-color="#10065f"/><stop offset="1" stop-color="#0d0554"/></linearGradient><path d="M1076 755h-46.1l-15.9 20.7.3 197.3h61.7V755z" fill="url(#SVGID_11_)"/><path class="st14" d="M994 745h71v162h-71V745z"/><linearGradient id="SVGID_12_" gradientUnits="userSpaceOnUse" x1="408.777" y1="946.976" x2="408.584" y2="946.036" gradientTransform="matrix(71 0 0 -162 -27986 154151)"><stop offset="0" stop-color="#150b71" stop-opacity=".12"/><stop offset=".08" stop-color="#150b71" stop-opacity=".12"/><stop offset=".15" stop-color="#130a6b" stop-opacity=".29"/><stop offset=".31" stop-color="#110861" stop-opacity=".6"/><stop offset=".48" stop-color="#0f065a" stop-opacity=".82"/><stop offset=".66" stop-color="#0d0555" stop-opacity=".96"/><stop offset=".87" stop-color="#0d0554"/><stop offset="1" stop-color="#0d0554"/></linearGradient><path d="M994 745h71v162h-71V745z" fill-rule="evenodd" clip-rule="evenodd" fill="url(#SVGID_12_)"/><path class="st14" d="M979 745h71v162h-71V745z"/><linearGradient id="SVGID_13_" gradientUnits="userSpaceOnUse" x1="408.777" y1="946.976" x2="408.584" y2="946.036" gradientTransform="matrix(71 0 0 -162 -28001 154151)"><stop offset="0" stop-color="#160c77" stop-opacity="0"/><stop offset=".44" stop-color="#110865" stop-opacity=".53"/><stop offset=".8" stop-color="#0e0658" stop-opacity=".87"/><stop offset="1" stop-color="#0d0554"/></linearGradient><path d="M979 745h71v162h-71V745z" fill-rule="evenodd" clip-rule="evenodd" fill="url(#SVGID_13_)"/><linearGradient id="SVGID_14_" gradientUnits="userSpaceOnUse" x1="376.822" y1="-106.803" x2="368.05" y2="-404.764" gradientTransform="matrix(62 0 0 -218 -24225 207137)"><stop offset="0" stop-color="#120667"/><stop offset=".36" stop-color="#10065f"/><stop offset="1" stop-color="#0d0554"/></linearGradient><path d="M1029 755h62v218h-62V755z" fill-rule="evenodd" clip-rule="evenodd" fill="url(#SVGID_14_)"/><circle class="st20" cx="1061" cy="903" r="11"/><path d="M1029 755l-74 95.5V973h74V755z" fill="#160c77"/><path id="Path_14_" class="st22" d="M383.1 690.4c2.5-2.1 6.3-1.7 8.4.7l18.1 20.1c1.7 2 1.8 4.8.4 7l-12.5 15.2c-2.2 3.2-6.5 4.5-10.1 3l-24-10.9c-2.6-1.2-4.3-3.8-4.3-6.6 0-1.8.7-3.6 1.9-4.9l22.1-23.6z"/><path id="Path_17_" class="st22" d="M488.2 600.3c-1.1-.8-2.5-1.3-3.8-1.3-3.5 0-6.3 2.9-6.3 6.3v.7l3.9 32.5c.4 3.1 3.1 5.5 6.3 5.5 1.9 0 3.7-.9 4.9-2.4l10.1-12.8c4.4-5.6 3.5-13.8-2.1-18.3l-13-10.2z"/><circle id="Oval_6_" class="st20" cx="492" cy="621" r="5"/><circle class="st20" cx="1170" cy="903" r="11"/><linearGradient id="SVGID_15_" gradientUnits="userSpaceOnUse" x1="410.019" y1="947.211" x2="411.019" y2="947.211" gradientTransform="matrix(104 0 0 -90 -41565 86217)"><stop offset="0" stop-color="#160c77"/><stop offset=".34" stop-color="#1a1a91"/><stop offset=".7" stop-color="#201e9a"/><stop offset="1" stop-color="#1a1283"/></linearGradient><path d="M1077 968c0 15.5 12.9 28.3 28.5 28.3v16.7h75.5v-90h-75.5v16.7c-15.6 0-28.5 12.8-28.5 28.3zm10.9 0c0-9.6 7.9-17.5 17.6-17.5v34.9c-9.6 0-17.6-7.8-17.6-17.4z" fill="url(#SVGID_15_)"/><path class="st22" d="M366.6 721l-5.6-4.4L483.4 605l5.6 4.4L366.6 721zm23 11l-5.6-4.4L495.4 625l5.6 4.4L389.6 732z"/><linearGradient id="SVGID_16_" gradientUnits="userSpaceOnUse" x1="409.186" y1="946.274" x2="410.186" y2="946.274" gradientTransform="matrix(86 0 0 -199 -34810 189120)"><stop offset="0" stop-color="#0d0550"/><stop offset=".15" stop-color="#0d0550"/><stop offset=".7" stop-color="#0c0238"/><stop offset="1" stop-color="#0c022f"/></linearGradient><path d="M380 714.6l6.6-2.6L466 908.4l-6.6 2.6L380 714.6z" fill="url(#SVGID_16_)"/><linearGradient id="SVGID_17_" gradientUnits="userSpaceOnUse" x1="1872.587" y1="946.298" x2="1990.627" y2="946.298" gradientTransform="matrix(85 0 0 -193 -34417 183450)"><stop offset="0" stop-color="#0d0550"/><stop offset=".15" stop-color="#0d0550"/><stop offset=".7" stop-color="#0c0238"/><stop offset="1" stop-color="#0c022f"/></linearGradient><path d="M359 720.6l6.7-2.6L444 908.4l-6.7 2.6L359 720.6z" fill="url(#SVGID_17_)"/><path class="st3" d="M392 902h117v28H392v-28z"/><linearGradient id="SVGID_18_" gradientUnits="userSpaceOnUse" x1="411.807" y1="946.828" x2="411.159" y2="946.276" gradientTransform="matrix(148.0001 0 0 -152 -60360.023 144472)"><stop offset="0" stop-color="#181485"/><stop offset=".21" stop-color="#160c77"/><stop offset=".39" stop-color="#130a67"/><stop offset=".86" stop-color="#0d0441"/><stop offset="1" stop-color="#0d0441"/></linearGradient><path d="M529.3 604.6l-23.7-27.1c-11.2-12.8-9.9-32.7 2.9-43.9 12.8-11.2 32.6-9.9 43.8 2.9l23.7 27.1c19-3.8 50.7 6.2 67 24.8l3.1 3.5-98 86.1-3.1-3.5c-16.2-18.6-22-51.5-15.7-69.9z" fill="url(#SVGID_18_)"/><linearGradient id="SVGID_19_" gradientUnits="userSpaceOnUse" x1="407.838" y1="950.474" x2="407.838" y2="950.474" gradientTransform="matrix(148.0001 0 0 -152 -60360.023 144472)"><stop offset="0" stop-color="#181485"/><stop offset=".21" stop-color="#160c77"/><stop offset=".39" stop-color="#130a67"/><stop offset=".86" stop-color="#0d0441"/><stop offset="1" stop-color="#0d0441"/></linearGradient><circle class="st20" cx="492" cy="621" r="5"/><linearGradient id="SVGID_20_" gradientUnits="userSpaceOnUse" x1="598.652" y1="902.639" x2="726.875" y2="737.203"><stop offset="0" stop-color="#1f1e90"/><stop offset=".12" stop-color="#171575"/><stop offset=".254" stop-color="#100d60"/><stop offset=".401" stop-color="#0c0750"/><stop offset=".57" stop-color="#090447"/><stop offset=".81" stop-color="#080344"/></linearGradient><path d="M580 880h233l-60.3-212H587.3c-4 0-7.3 3.3-7.3 7.2V880z" fill="url(#SVGID_20_)"/><g opacity=".15"><path class="st30" d="M755.4 982.5l-62 15.7 15.7 62 62-15.7-15.7-62zm62.1-15.7l-62 15.7 15.7 62 62-15.7-15.7-62z"/><path class="st30" d="M879.5 951.1l-62 15.7 15.7 62 62-15.7-15.7-62z"/></g><path d="M780.7 763.6c0-9.5-7.7-17.3-17.3-17.3h-46.3c-9.5 0-17.3 7.8-17.3 17.3v45.1c0 9.5 7.7 17.3 17.3 17.3h46.3c9.5 0 17.3-7.8 17.3-17.3v-45.1z" fill-rule="evenodd" clip-rule="evenodd" fill="#2d2dba"/><linearGradient id="SVGID_21_" gradientUnits="userSpaceOnUse" x1="409.383" y1="946.931" x2="409.383" y2="947.931" gradientTransform="matrix(80.9 0 0 -79.74 -32378.8 76334.352)"><stop offset="0" stop-color="#1c1682"/><stop offset="1" stop-color="#2828ad"/></linearGradient><path d="M780.7 763.6c0-9.5-7.8-17.3-17.3-17.3h-46.3c-9.5 0-17.3 7.8-17.3 17.3v45.1c0 9.5 7.7 17.3 17.3 17.3h46.3c9.5 0 17.3-7.8 17.3-17.3v-45.1z" fill-rule="evenodd" clip-rule="evenodd" fill="url(#SVGID_21_)"/><linearGradient id="SVGID_22_" gradientUnits="userSpaceOnUse" x1="400.232" y1="957.291" x2="400.232" y2="957.291" gradientTransform="matrix(80.9 0 0 -79.74 -32378.8 76334.352)"><stop offset="0" stop-color="#1c1682"/><stop offset="1" stop-color="#2828ad"/></linearGradient><linearGradient id="SVGID_23_" gradientUnits="userSpaceOnUse" x1="408.964" y1="947.768" x2="409.819" y2="947.08" gradientTransform="matrix(80.9 0 0 -79.74 -32378.8 76334.352)"><stop offset="0" stop-color="#2da1e8" stop-opacity=".2"/><stop offset=".02" stop-color="#2da1e8" stop-opacity=".19"/><stop offset=".11" stop-color="#2da1e8" stop-opacity=".14"/><stop offset=".2" stop-color="#2da1e8" stop-opacity=".11"/><stop offset=".29" stop-color="#2da1e8" stop-opacity=".07"/><stop offset=".39" stop-color="#2da1e8" stop-opacity=".05"/><stop offset=".49" stop-color="#2da1e8" stop-opacity=".03"/><stop offset=".6" stop-color="#2da1e8" stop-opacity=".01"/><stop offset=".71" stop-color="#2da1e8" stop-opacity="0"/><stop offset=".86" stop-color="#2da1e8" stop-opacity="0"/><stop offset="1" stop-color="#2da1e8" stop-opacity="0"/></linearGradient><path d="M780.7 763.6c0-9.5-7.8-17.3-17.3-17.3h-46.3c-9.5 0-17.3 7.8-17.3 17.3v45.1c0 9.5 7.7 17.3 17.3 17.3h46.3c9.5 0 17.3-7.8 17.3-17.3v-45.1z" fill-rule="evenodd" clip-rule="evenodd" fill="url(#SVGID_23_)"/><linearGradient id="SVGID_24_" gradientUnits="userSpaceOnUse" x1="665.036" y1="913.143" x2="820.54" y2="691.763"><stop offset="0" stop-color="#2c82d9"/><stop offset="1" stop-color="#2828ad"/></linearGradient><path d="M649 880h223V677.3c0-5.1-4.3-9.3-9.4-9.3H658.5c-5.2 0-9.4 4.2-9.5 9.3V880z" fill="url(#SVGID_24_)"/><path class="st4" d="M667 849v-3h186v3H667z"/><path d="M667 685h186v152H667V685z" fill-rule="evenodd" clip-rule="evenodd" fill="#050619"/><linearGradient id="SVGID_25_" gradientUnits="userSpaceOnUse" x1="412.668" y1="946.259" x2="411.656" y2="946.945" gradientTransform="matrix(186.716 0 0 -150.896 -76220.875 143587.188)"><stop offset="0" stop-color="#4343dd" stop-opacity="0"/><stop offset=".02" stop-color="#4343dd" stop-opacity=".02"/><stop offset=".51" stop-color="#4343dd" stop-opacity=".54"/><stop offset=".84" stop-color="#4343dd" stop-opacity=".87"/><stop offset="1" stop-color="#4343dd"/></linearGradient><path d="M665.5 685.6h186.7v150.9H665.5V685.6z" opacity=".2" fill-rule="evenodd" clip-rule="evenodd" fill="url(#SVGID_25_)"/><path class="st38" d="M592 826v-3h41v3h-41zm0 2h41v3h-41v-3zm0 9v-3h41v3h-41zm0 5v-3h41v3h-41zm0 5v-3h41v3h-41zm0 5v-3h41v3h-41zm0 5v-3h41v3h-41zm0 5v-3h41v3h-41zm73.2-8.8"/><path class="st40" d="M606 737h12v17h-12v-17z"/><path class="st20" d="M599 737h7v17h-7v-17z"/><path class="st40" d="M606 764h12v17h-12v-17zm0 27h12v17h-12v-17z"/><path class="st20" d="M599 764h7v17h-7v-17zm0 27h7v17h-7v-17z"/><linearGradient id="SVGID_26_" gradientUnits="userSpaceOnUse" x1="413.315" y1="947.944" x2="414.315" y2="947.944" gradientTransform="matrix(604 0 0 -63 -249642 60493)"><stop offset="0" stop-color="#0c022f"/><stop offset=".672" stop-color="#120667"/><stop offset="1" stop-color="#170e78"/></linearGradient><path d="M0 768h604v9H0v-9zm0 27h604v9H0v-9zm0-54h604v9H0v-9z" fill="url(#SVGID_26_)"/><linearGradient id="SVGID_27_" gradientUnits="userSpaceOnUse" x1="482.405" y1="979.348" x2="629.071" y2="877.57"><stop offset="0" stop-color="#050619"/><stop offset=".525" stop-color="#080344"/></linearGradient><path d="M475 975h148l-.6-98H495.6L475 975z" fill="url(#SVGID_27_)"/><linearGradient id="SVGID_28_" gradientUnits="userSpaceOnUse" x1="696.666" y1="841.495" x2="837.555" y2="1062.828"><stop offset="0" stop-color="#1f1e90"/><stop offset=".156" stop-color="#1b1982"/><stop offset=".717" stop-color="#0d0955"/><stop offset="1" stop-color="#080344"/></linearGradient><path d="M587 975h345l-18.1-98H603.8L587 975z" fill="url(#SVGID_28_)"/><linearGradient id="SVGID_29_" gradientUnits="userSpaceOnUse" x1="402.5" y1="960.9" x2="403.5" y2="960.9" gradientTransform="matrix(36 0 0 -10 -13784 10505)"><stop offset="0" stop-color="#0c022f" stop-opacity=".67"/><stop offset=".18" stop-color="#0c022f" stop-opacity=".74"/><stop offset="1" stop-color="#0c022f"/></linearGradient><path d="M706 891h36v10h-36v-10z" fill-rule="evenodd" clip-rule="evenodd" fill="url(#SVGID_29_)"/><linearGradient id="SVGID_30_" gradientUnits="userSpaceOnUse" x1="2437.904" y1="960.9" x2="2589.493" y2="960.9" gradientTransform="matrix(109 0 0 -10 -43951 10505)"><stop offset="0" stop-color="#0c022f" stop-opacity=".67"/><stop offset=".18" stop-color="#0c022f" stop-opacity=".74"/><stop offset="1" stop-color="#0c022f"/></linearGradient><path d="M761 891h109v10H761v-10z" fill-rule="evenodd" clip-rule="evenodd" fill="url(#SVGID_30_)"/><linearGradient id="SVGID_31_" gradientUnits="userSpaceOnUse" x1="409.349" y1="947.739" x2="409.034" y2="948.67" gradientTransform="matrix(78 0 0 -57 -31263 54972)"><stop offset="0" stop-color="#0c022f" stop-opacity=".3"/><stop offset=".55" stop-color="#0c022f" stop-opacity=".74"/><stop offset="1" stop-color="#0c022f"/></linearGradient><path d="M615 896h78v57h-78v-57z" fill-rule="evenodd" clip-rule="evenodd" fill="url(#SVGID_31_)"/><path class="st47" d="M637.5 918.9l-.1-12.9h2.8l.1 12.9h-2.8zm-4.8 0l-.1-12.9h2.8l.1 12.9h-2.8zm-4.8 0l-.1-12.9h2.8l.1 12.9h-2.8zm-4.7 0l-.1-12.9h2.8l.1 12.9h-2.8zm-4.9 0l-.1-12.9h2.8l.1 12.9h-2.8zm43.2 0l-.1-12.9h2.8l.1 12.9h-2.8zm-4.8 0l-.1-12.9h2.8l.1 12.9h-2.8zm-4.8 0l-.1-12.9h2.8l.1 12.9h-2.8zm-4.8 0L647 906h2.8l.1 12.9h-2.8zm-4.8 0l-.1-12.9h2.8l.1 12.9h-2.8zm43 0l-.1-12.9h2.8l.1 12.9h-2.8zm-4.8 0l-.1-12.9h2.8l.1 12.9h-2.8zm-4.8 0l-.1-12.9h2.8l.1 12.9h-2.8zm-4.8 0l-.1-12.9h2.8l.1 12.9h-2.8zm-4.8 0L666 906h2.8l.1 12.9h-2.8zM637.7 946.5l-.1-15.9h2.7l.1 15.9h-2.7zm-4.8 0l-.1-15.9h2.7l.1 15.9h-2.7zm-4.8 0l-.1-15.9h2.7l.1 15.9h-2.7zm-4.8 0l-.1-15.9h2.7l.1 15.9h-2.7zm-4.8 0l-.1-15.9h2.7l.1 15.9h-2.7zm43.2 0l-.1-15.9h2.7l.1 15.9h-2.7zm-4.8 0l-.1-15.9h2.7l.1 15.9h-2.7zm-4.8 0l-.1-15.9h2.7l.1 15.9h-2.7zm-4.8 0l-.1-15.9h2.7l.1 15.9h-2.7zm-4.9 0l-.1-15.9h2.7l.1 15.9h-2.7zm43.1 0l-.1-15.9h2.7l.1 15.9h-2.7zm-4.8 0l-.1-15.9h2.7l.1 15.9h-2.7zm-4.8 0l-.1-15.9h2.7l.1 15.9h-2.7zm-4.8 0l-.1-15.9h2.7l.1 15.9h-2.7zm-4.8 0l-.1-15.9h2.7l.1 15.9h-2.7z"/><path class="st2" d="M573 888h9v9h-9v-9z"/><linearGradient id="SVGID_32_" gradientUnits="userSpaceOnUse" x1="369.62" y1="961.476" x2="367.565" y2="963.559" gradientTransform="matrix(9 0 0 -9 -2739 9556)"><stop offset="0" stop-color="#0c022f"/><stop offset=".08" stop-color="#0c022f" stop-opacity=".85"/><stop offset=".38" stop-color="#0c022f" stop-opacity=".38"/><stop offset=".67" stop-color="#0c022f" stop-opacity=".1"/><stop offset=".93" stop-color="#0c022f" stop-opacity="0"/><stop offset="1" stop-color="#0c022f" stop-opacity="0"/></linearGradient><path d="M573 888h9v9h-9v-9z" fill-rule="evenodd" clip-rule="evenodd" fill="url(#SVGID_32_)"/><path class="st38" d="M584 897h3.5l1.5-9h-5v9z"/><path d="M692.7 890H615l5.3 16H698l-5.3-16z" fill="#1d1d99"/><path class="st4" d="M620 906h-5v-16l5 16z"/><ellipse transform="rotate(172.21 227.144 550.904)" class="st2" cx="111.5" cy="110.1" rx="111.4" ry="109.8"/><g transform="rotate(-7.79 6585.744 -1587.815)"><radialGradient id="SVGID_33_" cx="127.478" cy="83.852" r=".574" gradientTransform="matrix(-31.933 217.2193 217.2197 31.933 -14011.305 -30275.162)" gradientUnits="userSpaceOnUse"><stop offset="0" stop-color="#0c022f" stop-opacity="0"/><stop offset="1" stop-color="#0c022f"/></radialGradient><path d="M111.5.3C173.1.3 223 49.5 223 110.1c0 60.6-49.9 109.8-111.4 109.8S.1 170.7.1 110.1C.1 49.5 50 .3 111.5.3z" fill-rule="evenodd" clip-rule="evenodd" fill="url(#SVGID_33_)"/></g><g transform="rotate(-7.79 6585.744 -1587.815)"><radialGradient id="SVGID_34_" cx="126.637" cy="86.348" r="1.086" gradientTransform="matrix(211.4902 58.9576 58.9578 -211.4899 -31639.016 10865.842)" gradientUnits="userSpaceOnUse"><stop offset="0" stop-color="#2828ad" stop-opacity=".3"/><stop offset=".45" stop-color="#2828ad" stop-opacity="0"/><stop offset="1" stop-color="#2828ad" stop-opacity="0"/></radialGradient><path d="M111.5.3C173.1.3 223 49.5 223 110.1c0 60.6-49.9 109.8-111.4 109.8S.1 170.7.1 110.1C.1 49.5 50 .3 111.5.3z" fill-rule="evenodd" clip-rule="evenodd" fill="url(#SVGID_34_)"/></g><path class="st4" d="M1010 1029.1l-9.5 9.4 9.6 9.4 9.6-9.4-9.7-9.4z"/><path d="M782.8 724h-45.9c-9.5 0-17.2 7.7-17.2 17.3v45.2c0 9.6 7.7 17.3 17.2 17.3h45.9c9.5 0 17.2-7.7 17.2-17.3v-45.2c0-9.6-7.7-17.3-17.2-17.3" fill="#2d2dba"/><linearGradient id="SVGID_35_" gradientUnits="userSpaceOnUse" x1="415.947" y1="940.383" x2="416.947" y2="940.383" gradientTransform="matrix(0 -79.106 80.899 0 -75316.18 33707.332)"><stop offset="0" stop-color="#1c1682"/><stop offset="1" stop-color="#2828ad"/></linearGradient><path d="M736.7 724.3c-9.6 0-17.3 7.7-17.3 17.2v44.8c0 9.5 7.7 17.2 17.3 17.2H783c9.6 0 17.3-7.7 17.3-17.2v-44.8c0-9.5-7.7-17.2-17.3-17.2h-46.3z" fill="url(#SVGID_35_)"/><linearGradient id="SVGID_36_" gradientUnits="userSpaceOnUse" x1="426.103" y1="930.99" x2="426.103" y2="930.99" gradientTransform="matrix(0 -79.106 80.899 0 -75316.18 33707.332)"><stop offset="0" stop-color="#1c1682"/><stop offset="1" stop-color="#2828ad"/></linearGradient><g id="Group_29_" transform="translate(22.608 18.933)"><path id="Path_148_" class="st55" d="M727.6 722.9h-7.5c-1 0-1.7.8-1.8 1.8v39.7c0 1 .6 1.8 1.5 1.8h7.5c1 0 1.9-.8 1.9-1.8v-39.7c.1-1-.7-1.8-1.6-1.8"/></g><g id="Group_30_" transform="translate(34.143 18.866)"><path id="Path_149_" class="st55" d="M746.6 726c1-1.1.2-2.9-1.3-2.9h-8.4c-.5 0-1 .2-1.3.6l-17 19.8c-.6.7-.6 1.6 0 2.3l16.8 19.8c.3.4.8.6 1.3.6h8.4c1.5 0 2.3-1.8 1.3-2.9l-14.9-17.5c-.6-.7-.6-1.6 0-2.3l15.1-17.5z"/></g><g id="Isolation-Mode" transform="translate(665 853)"><g id="Group_13_" transform="matrix(0 1 1 0 .237 .2)"><linearGradient id="Path_2_" gradientUnits="userSpaceOnUse" x1="123.251" y1="-263.004" x2="124.251" y2="-263.004" gradientTransform="matrix(0 -13.3711 13.1156 0 3450.708 1656.938)"><stop offset="0" stop-color="#2828ad"/><stop offset=".63" stop-color="#120667"/><stop offset="1" stop-color="#0d0554"/></linearGradient><path id="Path_37_" d="M1.6 8.9v-.4c.2-3.5 3-6.2 6.5-6.2 3.6 0 6.6 3 6.6 6.7v6l-3.3-.2c-1 .6-2.1.9-3.2.9-1.4 0-2.7-.5-3.8-1.3l-2.7-.1v-5c-.1-.2-.1-.3-.1-.4z" fill="url(#Path_2_)"/></g><g id="Group_14_" transform="matrix(0 -1 -1 0 21.465 15.168)"><path id="Path_38_" class="st39" d="M6.9.3C3.3.3.3 3.3.3 7s2.9 6.7 6.6 6.7c3.6 0 6.6-3 6.6-6.7S10.5.3 6.9.3"/></g><g id="Group_15_" transform="matrix(0 1 1 0 58.078 1.797)"><linearGradient id="Path_3_" gradientUnits="userSpaceOnUse" x1="121.653" y1="-320.819" x2="122.653" y2="-320.819" gradientTransform="matrix(0 -13.3713 13.1194 0 4208.924 1633.822)"><stop offset="0" stop-color="#2828ad"/><stop offset=".63" stop-color="#120667"/><stop offset="1" stop-color="#0d0554"/></linearGradient><path id="Path_39_" d="M0 7.2v-.5C.2 3.2 3 .4 6.5.4c3.6 0 6.6 3 6.6 6.7v6L9.8 13c-1 .6-2.1.9-3.3.9-1.4 0-2.7-.5-3.8-1.3L0 12.4v-5-.2z" fill="url(#Path_3_)"/></g><g id="Group_16_" transform="matrix(0 -1 -1 0 77.539 15.168)"><path id="Path_40_" class="st39" d="M6.9.3C3.3.3.3 3.3.3 7s2.9 6.7 6.6 6.7c3.6 0 6.6-3 6.6-6.7S10.5.3 6.9.3"/></g><g id="Group_17_" transform="matrix(0 1 1 0 115.294 1.797)"><linearGradient id="Path_4_" gradientUnits="userSpaceOnUse" x1="121.653" y1="-378.035" x2="122.653" y2="-378.035" gradientTransform="matrix(0 -13.3713 13.1194 0 4959.564 1633.822)"><stop offset="0" stop-color="#2828ad"/><stop offset=".63" stop-color="#120667"/><stop offset="1" stop-color="#0d0554"/></linearGradient><path id="Path_41_" d="M0 7.2v-.5C.2 3.2 3 .4 6.5.4c3.6 0 6.6 3 6.6 6.7v6L9.8 13c-1 .6-2.1.9-3.3.9-1.4 0-2.7-.5-3.8-1.3L0 12.4v-5-.2z" fill="url(#Path_4_)"/></g><g id="Group_18_" transform="matrix(0 -1 -1 0 134.755 15.168)"><path id="Path_42_" class="st39" d="M6.9.3C3.3.3.3 3.3.3 7s2.9 6.7 6.6 6.7c3.6 0 6.6-3 6.6-6.7S10.5.3 6.9.3"/></g><g id="Group_19_" transform="matrix(0 1 1 0 169.803 1.797)"><linearGradient id="Path_5_" gradientUnits="userSpaceOnUse" x1="121.653" y1="-432.544" x2="122.653" y2="-432.544" gradientTransform="matrix(0 -13.3713 13.1194 0 5674.692 1633.822)"><stop offset="0" stop-color="#2828ad"/><stop offset=".63" stop-color="#120667"/><stop offset="1" stop-color="#0d0554"/></linearGradient><path id="Path_43_" d="M0 7.2v-.5C.2 3.2 3 .4 6.5.4c3.6 0 6.6 3 6.6 6.7v6L9.8 13c-1 .6-2.1.9-3.3.9-1.4 0-2.7-.5-3.8-1.3L0 12.4v-5-.2z" fill="url(#Path_5_)"/></g><g id="Group_20_" transform="matrix(0 -1 -1 0 189.265 15.168)"><path id="Path_44_" class="st39" d="M6.9.3C3.3.3.3 3.3.3 7s2.9 6.7 6.6 6.7c3.6 0 6.6-3 6.6-6.7S10.5.3 6.9.3"/></g></g><g><linearGradient id="Path_6_" gradientUnits="userSpaceOnUse" x1="800.056" y1="919.014" x2="716.937" y2="965.596"><stop offset="0" stop-color="#151168"/><stop offset="1" stop-color="#0c022f"/></linearGradient><path id="Path_79_" fill="url(#Path_6_)" d="M808.1 975H706.5v-64l101.6 48.9z"/><path id="Rectangle_32_" class="st1" d="M803.5 958h242v17h-242z"/><linearGradient id="SVGID_37_" gradientUnits="userSpaceOnUse" x1="1067.167" y1="967.436" x2="794.459" y2="967.436"><stop offset="0" stop-color="#1d1d99"/><stop offset="1" stop-color="#18157b"/></linearGradient><path d="M1063.9 975H808.1v-15.1H1064l-.1 15.1z" fill="url(#SVGID_37_)"/><linearGradient id="SVGID_38_" gradientUnits="userSpaceOnUse" x1="706.448" y1="935.537" x2="1063.938" y2="935.537"><stop offset="0" stop-color="#1d1d99"/><stop offset=".874" stop-color="#18167c"/></linearGradient><path d="M706.4 911.2H956l107.9 48.7H808.1l-101.7-48.7z" fill="url(#SVGID_38_)"/><path class="st4" d="M878.1 915.2l1.5-6.9 13.6 5.3-1.7 7.5-13.4-5.9z"/><path class="st39" d="M879.6 908.2h20.6l13.6 5.3h-20.6l-13.6-5.3z"/><path class="st63" d="M913.8 913.5h-20.6l-1.7 7.5h20.6l1.7-7.5z"/><path class="st4" d="M828.2 915.2l1.6-6.9 13.6 5.3-1.7 7.5-13.5-5.9z"/><path class="st39" d="M829.8 908.2h20.6l13.6 5.3h-20.6l-13.6-5.3z"/><path class="st63" d="M864.1 913.5h-20.6l-1.7 7.5h20.6l1.7-7.5z"/><g><path class="st4" d="M928.2 915.2l1.5-6.9 13.7 5.3-1.7 7.5-13.5-5.9z"/><path class="st39" d="M929.7 908.2h20.6l13.6 5.3h-20.6l-13.6-5.3z"/><path class="st63" d="M964 913.5h-20.6l-1.7 7.5h20.6l1.7-7.5z"/></g><g><path class="st4" d="M780.2 915.2l1.6-6.9 13.6 5.3-1.7 7.5-13.5-5.9z"/><path class="st39" d="M781.8 908.2h20.6l13.6 5.3h-20.6l-13.6-5.3z"/><path class="st63" d="M816.1 913.5h-20.6l-1.7 7.5h20.6l1.7-7.5z"/></g><g><path class="st4" d="M732 915.2l1.6-6.9 13.6 5.3-1.7 7.5-13.5-5.9z"/><path class="st39" d="M733.6 908.2h20.6l13.6 5.3h-20.6l-13.6-5.3z"/><path class="st63" d="M767.9 913.5h-20.6l-1.7 7.5h20.6l1.7-7.5z"/></g><g><path class="st4" d="M901.4 926.2l1.6-6.9 13.6 5.3-1.6 7.4-13.6-5.8z"/><path class="st39" d="M903 919.3h20.6l13.6 5.3h-20.6l-13.6-5.3z"/><path class="st63" d="M937.2 924.6h-20.6L915 932h20.6l1.6-7.4z"/><path class="st4" d="M851.7 926.2l1.6-6.9 13.6 5.3-1.7 7.4-13.5-5.8z"/><path class="st39" d="M853.2 919.3h20.6l13.6 5.3h-20.6l-13.6-5.3z"/><path class="st63" d="M887.5 924.6h-20.6l-1.7 7.4h20.6l1.7-7.4z"/><g><path class="st4" d="M951.6 926.2l1.5-6.9 13.6 5.3-1.7 7.4-13.4-5.8z"/><path class="st39" d="M953.1 919.3h20.6l13.6 5.3h-20.6l-13.6-5.3z"/><path class="st63" d="M987.4 924.6h-20.6l-1.7 7.4h20.6l1.7-7.4z"/></g><g><path class="st4" d="M803.6 926.2l1.6-6.9 13.6 5.3-1.7 7.4-13.5-5.8z"/><path class="st39" d="M805.2 919.3h20.6l13.6 5.3h-20.6l-13.6-5.3z"/><path class="st63" d="M839.4 924.6h-20.6l-1.7 7.4h20.6l1.7-7.4z"/></g><g><path class="st4" d="M755.5 926.2l1.6-6.9 13.6 5.3-1.7 7.4-13.5-5.8z"/><path class="st39" d="M757 919.3h20.6l13.6 5.3h-20.6l-13.6-5.3z"/><path class="st63" d="M791.2 924.6h-20.6L769 932h20.6l1.6-7.4z"/></g></g><g><path class="st4" d="M924.8 938.4l1.6-6.9 13.6 5.3-1.7 7.4-13.5-5.8z"/><path class="st39" d="M926.3 931.4h20.6l13.7 5.3H940l-13.7-5.3z"/><path class="st63" d="M960.6 936.7H940l-1.7 7.4h20.6l1.7-7.4z"/><path class="st4" d="M875 938.4l1.6-6.9 13.6 5.3-1.7 7.4-13.5-5.8z"/><path class="st39" d="M876.6 931.4h20.6l13.6 5.3h-20.6l-13.6-5.3z"/><path class="st63" d="M910.7 936.7h-20.6l-1.7 7.4H909l1.7-7.4z"/><g><path class="st4" d="M978.1 938.4l1.6-6.9 13.6 5.3-1.7 7.4-13.5-5.8z"/><path class="st39" d="M979.7 931.4h20.6l13.6 5.3h-20.6l-13.6-5.3z"/><path class="st63" d="M1013.9 936.7h-20.6l-1.7 7.4h20.6l1.7-7.4z"/></g><g><path class="st4" d="M827 938.4l1.6-6.9 13.6 5.3-1.7 7.4-13.5-5.8z"/><path class="st39" d="M828.5 931.4h20.6l13.6 5.3h-20.6l-13.6-5.3z"/><path class="st63" d="M862.7 936.7h-20.6l-1.7 7.4H861l1.7-7.4z"/></g><g><path class="st4" d="M778.8 938.4l1.6-6.9 13.6 5.3-1.7 7.4-13.5-5.8z"/><path class="st39" d="M780.4 931.4H801l13.6 5.3H794l-13.6-5.3z"/><path class="st63" d="M814.5 936.7H794l-1.7 7.4h20.6l1.6-7.4z"/></g></g><g><path class="st4" d="M948.2 949.4l1.6-6.9 13.6 5.3-1.7 7.4-13.5-5.8z"/><path class="st39" d="M949.7 942.5h20.6l13.6 5.3h-20.6l-13.6-5.3z"/><path class="st63" d="M983.9 947.8h-20.6l-1.7 7.4h20.6l1.7-7.4z"/><path class="st4" d="M1003.3 949.4l1.6-6.9 13.6 5.3-1.7 7.4-13.5-5.8z"/><path class="st39" d="M1004.9 942.5h20.6l13.6 5.3h-20.6l-13.6-5.3z"/><path class="st63" d="M1039.1 947.8h-20.6l-1.7 7.4h20.6l1.7-7.4z"/><g><path d="M850.4 949.4l1.5-6.9 13.6 5.3-1.7 7.4-13.4-5.8z" fill="#2d24aa"/></g><g><path class="st4" d="M802.2 949.4l1.5-6.9 13.6 5.3-1.7 7.4-13.4-5.8z"/><path class="st39" d="M803.7 942.5h20.6l13.6 5.3h-20.6l-13.6-5.3z"/><path class="st63" d="M838 947.8h-20.6l-1.7 7.4h20.6l1.7-7.4z"/></g></g><g><path class="st4" d="M850.3 949.4l1.6-6.9 13.6 5.3-1.7 7.4-13.5-5.8z"/><path class="st39" d="M851.9 942.5h68.7l13.6 5.3h-68.7l-13.6-5.3z"/><path class="st63" d="M934.2 947.8h-68.7l-1.7 7.4h68.7l1.7-7.4z"/></g></g></svg>