<?xml version="1.0" encoding="UTF-8"?> <svg xmlns="http://www.w3.org/2000/svg" xmlns:xlink="http://www.w3.org/1999/xlink" width="521" height="514"><defs><linearGradient x1="50%" y1="0%" x2="50%" y2="100%" id="a"><stop stop-color="#4F3EE1" offset="0%"></stop><stop stop-color="#221592" offset="100%"></stop></linearGradient><linearGradient x1="50%" y1="0%" x2="50%" y2="99.082%" id="d"><stop stop-color="#1C318F" offset="0%"></stop><stop stop-color="#0072CC" offset="55.529%"></stop><stop stop-color="#00D8DB" offset="100%"></stop></linearGradient><linearGradient x1="50%" y1="0%" x2="50%" y2="100%" id="e"><stop stop-color="#1C318F" offset="0%"></stop><stop stop-color="#095EB9" offset="42.898%"></stop><stop stop-color="#00D8DB" offset="100%"></stop></linearGradient><path id="b" d="M13.215.001l1.987 1.962L7.89 9.216.561 1.964 2.546 0l5.34 5.285z"></path></defs><g fill="none" fill-rule="evenodd"><path d="M0 0h521v514H0z"></path><rect fill="url(#a)" x="109" y="90" width="274" height="336" rx="8"></rect><rect stroke="#2CD4D9" stroke-width="2" fill="#FFF" x="110" y="91" width="272" height="47" rx="8"></rect><g transform="translate(342 108)"><mask id="c" fill="#fff"><use xlink:href="#b"></use></mask><use fill="#999" xlink:href="#b"></use><text mask="url(#c)" font-family="Roboto-Regular, Roboto" font-size="14" fill="#43414E"><tspan x="-9.263" y="37.111">Chevro</tspan><tspan x="-9.263" y="61.111">n</tspan></text></g><path d="M344 355.059L374.5 318l30.5 37.059h-16.486V402h-28.028v-46.941H344z" fill="url(#d)" transform="matrix(0 1 1 0 14.5 -14.5)"></path><path d="M377.486 259h28.028v46.941H422L391.5 343 361 305.941h16.486V259z" fill="url(#e)" transform="matrix(0 1 1 0 90.5 -90.5)"></path><path d="M139.62 121c1.392 0 2.507-.35 3.344-1.053.838-.702 1.257-1.652 1.257-2.85 0-.723-.198-1.372-.595-1.946-.396-.574-.961-1.026-1.696-1.357.612-.3 1.096-.71 1.45-1.23.354-.521.532-1.116.532-1.783 0-1.16-.387-2.08-1.16-2.76-.774-.681-1.82-1.021-3.142-1.021-1.314 0-2.358.34-3.131 1.02-.773.68-1.16 1.6-1.16 2.76 0 .668.176 1.263.527 1.784.35.52.83.93 1.435 1.23-.722.312-1.282.758-1.682 1.338-.4.58-.599 1.236-.599 1.966 0 1.191.42 2.14 1.261 2.845.841.705 1.96 1.057 3.36 1.057zm0-8.095c-.6 0-1.074-.184-1.426-.552-.35-.368-.526-.864-.526-1.488 0-.63.174-1.128.522-1.493.348-.365.821-.547 1.42-.547.6 0 1.076.192 1.43.575.355.384.532.872.532 1.465 0 .624-.175 1.12-.526 1.488-.351.368-.827.552-1.426.552zm0 6.28c-.709 0-1.264-.2-1.667-.6-.403-.399-.604-.932-.604-1.6 0-.68.204-1.226.613-1.637.41-.412.956-.618 1.639-.618s1.232.207 1.648.622c.415.415.623.96.623 1.633 0 .693-.198 1.232-.594 1.62-.397.386-.95.58-1.658.58zm8.293 1.73c.438 0 .776-.116 1.015-.35.238-.234.358-.529.358-.885 0-.361-.12-.662-.358-.903-.239-.24-.577-.36-1.015-.36-.432 0-.767.12-1.005.36a1.23 1.23 0 00-.358.903c0 .362.123.659.367.89.245.23.577.346.996.346zm8.496.085c1.546 0 2.698-.498 3.455-1.493.757-.995 1.136-2.472 1.136-4.43v-2.36c-.02-1.902-.408-3.33-1.165-4.285-.757-.955-1.905-1.432-3.445-1.432-1.553 0-2.708.49-3.465 1.47-.758.979-1.136 2.448-1.136 4.407v2.358c.02 1.903.414 3.34 1.184 4.31.77.97 1.915 1.455 3.436 1.455zm0-1.816c-.786 0-1.363-.311-1.73-.935-.367-.624-.551-1.573-.551-2.845v-3.088c.02-1.198.21-2.08.57-2.644.361-.565.925-.847 1.692-.847.786 0 1.36.298 1.72.894.36.595.541 1.533.541 2.812v3.079c-.019 1.229-.21 2.132-.57 2.709s-.918.865-1.672.865z" fill="#43414E" fill-rule="nonzero"></path><path d="M136.185 189.896l5.704-12.437v-1.27H132v1.835h7.38l-5.694 11.872h2.499zm9.251.104c.445 0 .788-.118 1.03-.353a1.19 1.19 0 00.362-.89c0-.364-.12-.667-.363-.908-.241-.242-.584-.363-1.029-.363-.437 0-.777.121-1.019.363a1.232 1.232 0 00-.363.908c0 .364.125.662.373.895.248.232.585.348 1.01.348zm13.564-.104v-1.826h-6.625l3.489-3.587c.915-.954 1.573-1.806 1.975-2.556.401-.75.602-1.467.602-2.152 0-1.18-.4-2.104-1.2-2.772-.8-.669-1.893-1.003-3.278-1.003-.96 0-1.809.185-2.544.555-.735.37-1.3.89-1.695 1.559-.395.668-.593 1.42-.593 2.255h2.382c0-.785.212-1.403.637-1.855.424-.452 1.022-.678 1.793-.678.647 0 1.161.2 1.544.602.382.402.573.93.573 1.582 0 .496-.145.99-.436 1.483-.291.493-.78 1.106-1.465 1.84l-4.754 4.981v1.572H159z" fill="#FFF" fill-rule="nonzero" opacity=".3"></path><path d="M138.094 257.813l5.58-12.362v-1.264H134v1.825h7.219l-5.57 11.8h2.445zm9.05.103c.434 0 .77-.117 1.006-.351.237-.234.355-.529.355-.885 0-.361-.118-.662-.355-.903-.236-.24-.572-.36-1.006-.36-.428 0-.76.12-.997.36s-.355.542-.355.903c0 .362.121.659.364.89.243.23.572.346.988.346zm8.178.084c1.4 0 2.529-.362 3.389-1.086.86-.723 1.289-1.697 1.289-2.92 0-.76-.2-1.416-.6-1.965-.399-.549-.982-.951-1.749-1.207a3.742 3.742 0 001.548-1.221c.4-.54.6-1.115.6-1.727 0-1.216-.398-2.166-1.194-2.85-.796-.682-1.89-1.024-3.283-1.024-.844 0-1.606.16-2.287.482-.68.321-1.211.769-1.591 1.343-.38.574-.57 1.21-.57 1.909h2.329c0-.568.201-1.028.604-1.38.402-.353.917-.53 1.543-.53.716 0 1.248.18 1.597.539.348.359.522.862.522 1.511 0 .674-.21 1.189-.628 1.544-.419.356-.986.537-1.702.543h-1.418v1.797h1.37c.857 0 1.502.193 1.937.58.435.387.652.94.652 1.657 0 .71-.208 1.254-.623 1.628-.416.374-.984.561-1.707.561-.696 0-1.25-.187-1.663-.561-.412-.374-.618-.861-.618-1.46h-2.33c0 1.16.428 2.09 1.285 2.789.856.699 1.955 1.048 3.298 1.048z" fill="#FFF" fill-rule="nonzero" opacity=".5"></path><path d="M138.149 325.895l5.654-12.607V312H134v1.86h7.316l-5.645 12.035h2.478zm9.171.105c.44 0 .78-.12 1.02-.358s.36-.54.36-.902c0-.369-.12-.676-.36-.92-.24-.246-.58-.368-1.02-.368-.434 0-.77.122-1.01.367s-.36.552-.36.921c0 .37.123.671.37.907.246.235.58.353 1 .353zm11.921-.105v-3.092H161v-1.86h-1.759V312h-2.438l-6.102 9.39.068 1.413h6.112v3.092h2.36zm-2.36-4.953h-3.702l3.527-5.497.175-.305v5.802z" fill="#FFF" fill-rule="nonzero" opacity=".8"></path><path d="M139.62 395c1.392 0 2.507-.35 3.344-1.053.838-.702 1.257-1.652 1.257-2.85 0-.723-.198-1.372-.595-1.946-.396-.574-.961-1.026-1.696-1.357.612-.3 1.096-.71 1.45-1.23.354-.521.532-1.116.532-1.783 0-1.16-.387-2.08-1.16-2.76-.774-.681-1.82-1.021-3.142-1.021-1.314 0-2.358.34-3.131 1.02-.773.68-1.16 1.6-1.16 2.76 0 .668.176 1.263.527 1.784.35.52.83.93 1.435 1.23-.722.312-1.282.758-1.682 1.338-.4.58-.599 1.236-.599 1.966 0 1.191.42 2.14 1.261 2.845.841.705 1.96 1.057 3.36 1.057zm0-8.095c-.6 0-1.074-.184-1.426-.552-.35-.368-.526-.864-.526-1.488 0-.63.174-1.128.522-1.493.348-.365.821-.547 1.42-.547.6 0 1.076.192 1.43.575.355.384.532.872.532 1.465 0 .624-.175 1.12-.526 1.488-.351.368-.827.552-1.426.552zm0 6.28c-.709 0-1.264-.2-1.667-.6-.403-.399-.604-.932-.604-1.6 0-.68.204-1.226.613-1.637.41-.412.956-.618 1.639-.618s1.232.207 1.648.622c.415.415.623.96.623 1.633 0 .693-.198 1.232-.594 1.62-.397.386-.95.58-1.658.58zm8.293 1.73c.438 0 .776-.116 1.015-.35.238-.234.358-.529.358-.885 0-.361-.12-.662-.358-.903-.239-.24-.577-.36-1.015-.36-.432 0-.767.12-1.005.36a1.23 1.23 0 00-.358.903c0 .362.123.659.367.89.245.23.577.346.996.346zm8.496.085c1.546 0 2.698-.498 3.455-1.493.757-.995 1.136-2.472 1.136-4.43v-2.36c-.02-1.902-.408-3.33-1.165-4.285-.757-.955-1.905-1.432-3.445-1.432-1.553 0-2.708.49-3.465 1.47-.758.979-1.136 2.448-1.136 4.407v2.358c.02 1.903.414 3.34 1.184 4.31.77.97 1.915 1.455 3.436 1.455zm0-1.816c-.786 0-1.363-.311-1.73-.935-.367-.624-.551-1.573-.551-2.845v-3.088c.02-1.198.21-2.08.57-2.644.361-.565.925-.847 1.692-.847.786 0 1.36.298 1.72.894.36.595.541 1.533.541 2.812v3.079c-.019 1.229-.21 2.132-.57 2.709s-.918.865-1.672.865z" fill="#FFF" fill-rule="nonzero"></path></g></svg> 