<?xml version="1.0" encoding="UTF-8"?> <svg xmlns="http://www.w3.org/2000/svg" viewBox="0 0 474 388" fill-rule="evenodd" clip-rule="evenodd" stroke-linejoin="round" stroke-miterlimit="2"><path fill="#1a1a91" d="M354.044 247.3l7.264-4.193 4.193 7.264-7.263 4.193z"></path><path d="M220.894 171.408a2.578 2.578 0 00-2.173 2.539c0 1.409 1.16 2.57 2.57 2.57a2.582 2.582 0 002.539-2.966 2.581 2.581 0 00-2.936-2.113M363.406 314.53a2.815 2.815 0 00-2.767-2.345 2.82 2.82 0 00-2.806 2.806 2.82 2.82 0 003.286 2.764 2.819 2.819 0 002.287-3.21" fill="#1a1a91" fill-rule="nonzero"></path><path fill="#1a1a91" d="M235.038 149.647h148.131v2.57H235.038z"></path><path d="M127.34 31.82h-.13C62.911 31.82 10 84.73 10 149.03c0 64.299 52.911 117.21 117.21 117.21 64.266 0 117.161-52.855 117.21-117.12v-.11c0-64.247-52.833-117.13-117.08-117.19z" fill="url(#_Radial1)" fill-rule="nonzero" transform="matrix(.76246 0 0 .76246 58.26 47.05)"></path><path d="M206.568 161.93h38.054v-.625h-38.077v-.137a110.558 110.558 0 00-10.377-46.259h36.003c-.13-.213-.267-.419-.396-.625h-35.928a100 100 0 00-19.061-27.09A98.365 98.365 0 00156.32 71.38h-1.593a97.18 97.18 0 00-39.282 42.85H78.93l-.374.618h36.637a107.394 107.394 0 00-9.66 46.282v.13H66.044v.625l39.435.046a108.511 108.511 0 009.15 42.5H77.414l.358.61h37.117a102.59 102.59 0 0021.082 30.444 98.492 98.492 0 0018.528 14.487h1.761a99.973 99.973 0 0040.884-44.894h36.377c.122-.203.236-.41.343-.617h-36.446c6.08-13.352 9.2-27.86 9.15-42.53zm-.61-.77v.138h-50.216v-46.434h39.648a108.586 108.586 0 0110.568 46.296zm-50.216-89.284a99.51 99.51 0 0139.358 42.362h-39.358V71.876zM134.873 87.46a97.015 97.015 0 0120.22-15.63v42.415h-38.992a97.19 97.19 0 0118.772-26.785zm-19.062 27.448h39.283v46.442H106.09v-.137a106.75 106.75 0 019.744-46.35l-.023.045zm-9.744 47.037h49.027v42.568H115.3a108.548 108.548 0 01-9.21-42.583l-.024.015zm9.539 43.117h39.488v1.525h.06v43.117a100.659 100.659 0 01-39.548-44.642zm60.79 28.73a104.149 104.149 0 01-20.654 15.829v-44.536h40.73a102.261 102.261 0 01-20.075 28.707zm29.531-71.862a101.258 101.258 0 01-9.15 42.568h-41.035V161.93h50.185z" fill-opacity=".7" fill-rule="nonzero"></path><path d="M281.823 176.333l-36.225 121.568h79.563v9.348l-20.586 12.275v13.9l69.72-15.15V182.006 182c0-3.093-2.543-5.639-5.635-5.643h-86.837v-.023z" fill="#0d0554" fill-rule="nonzero"></path><path d="M375.59 327.2H199.42V176.91c0-4.109 3.381-7.49 7.49-7.49H368.08c4.101 0 7.479 3.369 7.49 7.47l.02 150.31z" fill="url(#_Linear2)" fill-rule="nonzero" transform="matrix(.76246 0 0 .76246 58.26 47.05)"></path><path d="M224.203 189.738h106.562v87.896H224.203z"></path><circle cx="353.74" cy="314.43" r="3.73" fill="#4343dd" transform="matrix(.76246 0 0 .76246 58.26 47.05)"></circle><circle cx="302.57" cy="314.44" r="3.73" fill="#4343dd" transform="matrix(.76246 0 0 .76246 58.26 47.05)"></circle><circle cx="288.51" cy="314.43" r="3.73" fill="#4343dd" transform="matrix(.76246 0 0 .76246 58.26 47.05)"></circle><circle cx="272.47" cy="314.42" r="3.73" fill="#4343dd" transform="matrix(.76246 0 0 .76246 58.26 47.05)"></circle><path d="M134.65 375.53H323.1l-.03-18.21H134.61l.04 18.21z" fill="url(#_Linear3)" fill-rule="nonzero" transform="matrix(.76246 0 0 .76246 58.26 47.05)"></path><path d="M375.59 327.2l-176.15-1.04-64.83 31.16h188.46l52.52-30.12z" fill="url(#_Linear4)" fill-rule="nonzero" transform="matrix(.76246 0 0 .76246 58.26 47.05)"></path><path d="M336.918 300.95l1.045-.602h-13.244l8.013-3.888h-1.35l-8.043 3.896h-16.614l8.227-3.98h-1.35l-8.25 4.003h-16.149l8.471-4.11h-1.334l-8.463 4.11h-16.165l8.632-4.232h-1.35l-8.67 4.209h-16.163l8.86-4.278h-1.358l-8.875 4.278h-16.622l9.074-4.415h-1.357l-9.097 4.415h-16.614l9.295-4.506h-1.35l-9.31 4.521H200.75l-1.243.595h16.096l-12.314 5.932h-16.233l-1.25.595h16.255l-12.199 5.947h-16.355l-1.243.602h16.378l-11.239 5.46h1.365l11.246-5.46h16.622l-11.246 5.46h1.372l11.239-5.46h16.63l-11.247 5.46h1.372l11.247-5.46h16.172l-11.247 5.46h1.335l11.276-5.46h16.21l-11.246 5.46h1.334l11.24-5.46h16.156l-11.247 5.46h1.388l11.239-5.46h16.622l-11.247 5.46h1.373l11.215-5.46h17.537l1.045-.602h-17.323l12.199-5.947h15.493l1.045-.595h-15.318l12.2-5.947h13.464zm-48.95 0h16.157l-12.2 5.948h-16.202l12.245-5.947zm-17.536 0h16.156l-12.2 5.948h-16.202l12.246-5.947zm-17.537 0h16.156l-12.199 5.948h-16.157l12.2-5.947zm-17.964 0h16.622l-12.2 5.948h-16.652l12.23-5.947zm-17.971 0h16.667l-12.199 5.948h-16.713l12.245-5.947zm-9.096 12.49H191.25l12.2-5.947h16.613l-12.2 5.947zm17.963 0H209.23l12.199-5.947h16.622l-12.223 5.947zm17.537 0h-16.096l12.2-5.947h16.149l-12.253 5.947zm17.537 0h-16.142l12.2-5.947h16.156l-12.214 5.947zm17.536 0H262.25l12.2-5.947h16.156l-12.169 5.947zm17.964 0H279.78l12.2-5.947H308.6l-12.2 5.947zm13.473-6.542H293.26l12.2-5.947h16.613l-12.2 5.947z" fill="#120667" fill-rule="nonzero"></path><path fill="#2d1fb2" d="M276.048 230.502l2.962-.45.45 2.963-2.963.45z"></path><path fill="#160c77" d="M224.468 146.274l2.905-4.304 4.304 2.904-2.905 4.304z"></path><path d="M293.504 234.136V212.29h-33.42v21.845h-9.408l26.122 24.475 26.076-24.452-9.37-.023z" fill="#4949ea" fill-rule="nonzero"></path><path d="M426.13 339.18h-4.49v-3.37h4.49c15.756-.016 28.718-12.974 28.74-28.73V166.66c-.022-15.758-12.982-28.718-28.74-28.74v-3.36c17.601.022 32.078 14.499 32.1 32.1V307.1c-.033 17.594-14.506 32.058-32.1 32.08z" fill="url(#_Linear5)" fill-rule="nonzero" transform="matrix(.76246 0 0 .76246 58.26 47.05)"></path><path d="M368.141 298.945l2.128-1.761-.923-1.03-5.269 4.393h-6.35v6.74h1.31l-.038.038h20.785v-8.38h-11.643z" fill="#3636bf" fill-rule="nonzero"></path><path d="M160.004 68.62c-.013-8.059-6.649-14.684-14.708-14.684-8.068 0-14.708 6.64-14.708 14.708 0 2.856.832 5.652 2.394 8.043l12.482 23.59 12.68-24.528c.144-.267.29-.541.419-.816a14.721 14.721 0 001.44-6.313zm-14.708 6.74c-3.695-.003-6.733-3.045-6.733-6.74 0-3.697 3.043-6.74 6.74-6.74 3.698 0 6.74 3.043 6.74 6.74s-3.042 6.74-6.74 6.74h-.007zM113.272 153.711c0-8.068-6.64-14.708-14.707-14.708-8.069 0-14.708 6.64-14.708 14.708 0 2.866.838 5.67 2.409 8.067l12.482 23.583 12.68-24.52c.152-.268.29-.542.419-.817a14.599 14.599 0 001.425-6.313zm-14.707 6.74c-3.698 0-6.74-3.043-6.74-6.74s3.042-6.74 6.74-6.74c3.697 0 6.74 3.043 6.74 6.74s-3.043 6.74-6.74 6.74zM205.958 124.143c0-8.069-6.64-14.708-14.708-14.708-8.069 0-14.708 6.64-14.708 14.708 0 2.866.838 5.67 2.41 8.067l12.48 23.583 12.68-24.521c.153-.267.29-.541.42-.816a14.599 14.599 0 001.426-6.313zm-14.708 6.778c-3.698 0-6.74-3.043-6.74-6.74s3.042-6.74 6.74-6.74c3.697 0 6.74 3.043 6.74 6.74s-3.043 6.74-6.74 6.74z" fill="#4949ea" fill-rule="nonzero"></path><defs><linearGradient id="_Linear2" x1="0" y1="0" x2="1" y2="0" gradientUnits="userSpaceOnUse" gradientTransform="scale(193.8) rotate(-50.534 2.43 -.253)"><stop offset="0" stop-color="#1d31a0"></stop><stop offset=".47" stop-color="#1a1a91"></stop><stop offset="1" stop-color="#150e77"></stop></linearGradient><linearGradient id="_Linear3" x1="0" y1="0" x2="1" y2="0" gradientUnits="userSpaceOnUse" gradientTransform="translate(134.61 366.42) scale(188.49)"><stop offset="0" stop-color="#1d31a0"></stop><stop offset=".43" stop-color="#1a1a91"></stop><stop offset="1" stop-color="#120667"></stop></linearGradient><linearGradient id="_Linear4" x1="0" y1="0" x2="1" y2="0" gradientUnits="userSpaceOnUse" gradientTransform="matrix(30.17 95 -95 30.17 243.11 304.5)"><stop offset="0" stop-color="#4343dd"></stop><stop offset=".65" stop-color="#2626a8"></stop><stop offset="1" stop-color="#1a1a91"></stop></linearGradient><linearGradient id="_Linear5" x1="0" y1="0" x2="1" y2="0" gradientUnits="userSpaceOnUse" gradientTransform="matrix(0 -204.62 204.62 0 439.93 339.18)"><stop offset="0" stop-color="#3636bf"></stop><stop offset=".48" stop-color="#2828ad"></stop><stop offset="1" stop-color="#1a1a91"></stop></linearGradient><radialGradient id="_Radial1" cx="0" cy="0" r="1" gradientUnits="userSpaceOnUse" gradientTransform="scale(-166.24) rotate(65.23 .305 -.886)"><stop offset="0" stop-color="#3636bf"></stop><stop offset=".28" stop-color="#2828ad"></stop><stop offset=".55" stop-color="#1a107b"></stop><stop offset="1" stop-color="#0c022f"></stop></radialGradient></defs></svg> 