<svg xmlns="http://www.w3.org/2000/svg" id="Layer_8" x="0" y="0" version="1.1" viewBox="0 0 1440 800" xml:space="preserve"><style>.st0{fill:#1a1a91}.st7{fill:#4a6ddd}</style><path d="M1253.5 223.2l6.4-63.8-64.8-6.5-63.8-6.4-63.8-6.4-63.8-6.4-63.8-6.4-63.8-6.4-63.9-5.8-63.8-6.4.1-.1-63.7-6.4-31.4-3.2-32.4-3.3-6.5 64.8-6.4 63.8 64.8 6.5 62.7 6.3-6.4 63.3-6.4 63.8-6.4 63.8-6.4 63.8-6.4 63.8-6.4 63.8 64.8 6.5 63.8 6.4 63.8 6.4 63.8 6.4 63.8 6.4 63.8 6.4 63.8 6.4 63.8 6.4 6.5-64.8 6.4-63.8 6.4-63.8 6.4-63.8 6.4-63.8 6.4-63.8 6.4-63.7zm-230.1 41.3l-31.3-3.1 3.1-30.9 3.2-31.4 31.4 3.2 31.3 3.1-3.1 30.9-3.2 31.4-31.4-3.2zm-29.2-34.6l-3.2 31.4-31.4-3.2-31.3-3.1 3.1-30.9 3.2-31.4 31.4 3.2 31.3 3.1-3.1 30.9zm-63.8-6.4l-3.2 31.4-31.4-3.2-31.3-3.1 3.1-30.9 3.2-31.4 31.4 3.2 31.3 3.1-3.1 30.9zm-126.5-12.2l3.2-31.4 31.4 3.2 31.3 3.1-3.1 30.9-3.2 31.4-31.4-3.2-31.3-3.1 3.1-30.9zm124.3 45.2l62.7 6.3-3.1 30.9-3.2 31.4-31.4-3.2-31.4-3.2 3.2-31.4 3.2-30.8zm24.9 66.4l31.4 3.2-3.2 31.4-3.2 31.4-31.4-3.2-31.4-3.2 3.2-31.4 3.2-31.4 31.4 3.2zm-6.4 63.8l31.4 3.2-3.2 31.4-3.2 31.4-31.4-3.2-31.4-3.2 3.2-31.4 3.2-31.4 31.4 3.2zm29.3 34.6l3.2-31.4 31.4 3.2 31.4 3.2-3.2 31.4-3.2 31.4-31.4-3.2-31.4-3.2 3.2-31.4zm34.6-29.2l-31.4-3.2 3.2-31.4 3.2-31.4 31.4 3.2 31.4 3.2-3.2 31.4-3.2 31.4-31.4-3.2zm6.4-63.8l-31.4-3.2 3.2-31.4 3.1-30.9h.1l62.7 6.3-3.1 30.9-3.2 31.4-31.4-3.1zm70.2-57.4l-31.3-3.1 3.1-30.9 3.2-31.4 31.4 3.2 31.3 3.1-3.1 30.9-3.2 31.4-31.4-3.2zm-312.6-94.2l31.3 3.1-3.1 30.9-3.2 31.4-31.4-3.2-31.3-3.1 3.1-30.9 3.2-31.4 31.4 3.2zm89.8 73.4l62.7 6.3-3.1 30.9-3.2 31.4-31.4-3.2-31.4-3.2 3.1-31.4 3.3-30.8zm24.9 66.4l31.4 3.2-3.2 31.4-3.2 31.4-31.4-3.2-31.4-3.2 3.2-31.4 3.2-31.4 31.4 3.2zm-6.4 63.8l31.4 3.2-3.2 31.4-3.2 31.4-31.4-3.2-31.4-3.2 3.2-31.4 3.2-31.4 31.4 3.2zm-6.4 63.7l31.4 3.2-3.2 31.4-3.2 31.4-31.4-3.2-31.4-3.2 3.2-31.4 3.2-31.4 31.4 3.2zm29.3 34.7l3.2-31.4 31.4 3.2 31.4 3.2-3.2 31.4-3.2 31.4-31.4-3.2-31.4-3.2 3.2-31.4zm63.8 6.4l3.2-31.4 31.4 3.2 31.4 3.2-3.2 31.4-3.2 31.4-31.4-3.2-31.4-3.2 3.2-31.4zm63.7 6.4l3.2-31.4 31.4 3.2 31.4 3.2-3.2 31.4-3.2 31.4-31.4-3.2-31.4-3.2 3.2-31.4zm34.7-29.3l-31.4-3.2 3.2-31.4 3.2-31.4 31.4 3.2 31.4 3.2-3.2 31.4-3.2 31.4-31.4-3.2zm6.4-63.7l-31.4-3.2 3.2-31.4 3.2-31.4 31.4 3.2 31.4 3.2-3.2 31.4-3.2 31.4-31.4-3.2zm6.4-63.8l-31.4-3.2 3.2-31.4 3.1-30.9h.1l62.7 6.3-3.1 30.9-3.2 31.4-31.4-3.1zm47.3-155.8l-3.2 31.4-31.4-3.2-31.3-3.1 3.1-30.9 3.2-31.4 31.4 3.2 31.3 3.1-3.1 30.9zm-63.6-7.7l-3.3 32.7-31.4-3.2-31.3-3.1 3.1-30.9 3.2-31.4 31.4 3.2 31.3 3.1-3 29.6zm-63.8-6.5l-3.3 32.7-31.4-3.2-31.3-3.1 3.1-30.9 3.2-31.4 31.4 3.2 31.3 3.1-3 29.6zm-63.8-6.4l-3.3 32.7-31.4-3.2-31.3-3.1 3.1-30.9 3.2-31.4 31.4 3.2 31.3 3.1-3 29.6zm-63.8-6.4l-3.3 32.7-31.4-3.2-31.3-3.1 3.1-30.9 3.2-31.4 31.4 3.2 31.3 3.1-3 29.6zm-63.7-6.4l-3.3 32.7-31.4-3.2-31.3-3.1 3.1-30.9 3.2-31.4 31.4 3.2 31.3 3.1-3 29.6zm-8.8 98.2l62.7 6.3-3.1 30.9-3.2 31.4-31.4-3.2-31.4-3.2 3.2-31.4 3.2-30.8zm25 66.4l31.4 3.2-3.2 31.4-3.2 31.4-31.4-3.2-31.4-3.2 3.1-31.4 3.2-31.4 31.5 3.2zm-6.4 63.8l31.4 3.2-3.2 31.4-3.2 31.4-31.4-3.2-31.4-3.2 3.2-31.4 3.2-31.4 31.4 3.2zm-6.4 63.7l31.4 3.2-3.2 31.4-3.2 31.4-31.4-3.2-31.4-3.2 3.2-31.4 3.2-31.4 31.4 3.2zm-6.5 63.8l31.4 3.2-3.2 31.4-3.2 31.4-31.4-3.2-31.4-3.2 3.2-31.4 3.2-31.4 31.4 3.2zm29.3 34.7l3.2-31.4 31.4 3.2 31.4 3.2-3.2 31.4-3.2 31.4-31.4-3.2-31.4-3.2 3.2-31.4zm63.8 6.4l3.2-31.4 31.4 3.2 31.4 3.2-3.2 31.4-3.2 31.4-31.4-3.2-31.4-3.2 3.2-31.4zm63.8 6.4l3.2-31.4 31.4 3.2 31.4 3.2-3.2 31.4-3.2 31.4-31.4-3.2-31.4-3.2 3.2-31.4zm63.7 6.4l3.2-31.4 31.4 3.2 31.4 3.2-3.2 31.4-3.2 31.4-31.4-3.2-31.4-3.2 3.2-31.4zm63.8 6.4l3.2-31.4 31.4 3.2 31.4 3.2-3.2 31.4-3.2 31.4-31.4-3.2-31.4-3.2 3.2-31.4zm34.7-29.3l-31.4-3.2 3.2-31.4 3.2-31.4 31.4 3.2 31.4 3.2-3.2 31.4-3.2 31.4-31.4-3.2zm6.4-63.7l-31.4-3.2 3.2-31.4 3.2-31.4 31.4 3.2 31.4 3.2-3.2 31.4-3.2 31.4-31.4-3.2zm6.4-63.8l-31.4-3.2 3.2-31.4 3.2-31.4 31.4 3.2 31.4 3.2-3.2 31.4-3.2 31.4-31.4-3.2zm6.4-63.8l-31.4-3.2 3.2-31.4 3.1-30.9h.1l.1-.5 31.3 3.1 31.4 3.2-3.2 31.4-3.2 31.4-31.4-3.1zm6.4-63.8l-31.3-3.1 6.3-62.8 31.3 3.1 31.4 3.2-3.2 31.4-3.2 31.4-31.3-3.2zm6.4-63.8l-31.3-3.1 6.3-62.8 62.7 6.3-3.2 31.4-3.2 31.4-31.3-3.2zM685.9 103.3l31.4 3.2 31.3 3.1-6.3 62.8-31.3-3.1-31.4-3.2 3.2-31.4 3.1-31.4zm-63.8-6.4l31.4 3.1 31.4 3.2-3.2 31.4-3.2 31.4-31.4-3.2-31.4-3.2 6.4-62.7zm50 132.9l-62.8-6.3 6.3-62.8 31.4 3.2 31.4 3.2-3.2 31.4-3.1 31.3zm4.2-31.3l3.2-31.4 31.4 3.2 31.3 3.1-6.3 62.8-62.7-6.3 3.1-31.4zm60.4 38.8l62.8 6.3-3.1 30.9-3.2 31.4-31.4-3.2-31.4-3.2 6.3-62.2zm-6.3 63.2l31.4 3.2 31.4 3.2-3.2 31.4-3.2 31.4-31.4-3.2-31.4-3.2 6.4-62.8zm-6.4 63.8l31.4 3.2 31.4 3.2-3.2 31.4-3.2 31.4-31.4-3.2-31.4-3.2 6.4-62.8zm-6.4 63.8l31.4 3.2 31.4 3.2-3.2 31.4-3.2 31.4-31.4-3.2-31.4-3.2 6.4-62.8zm-6.4 63.8l31.4 3.2 31.4 3.2-3.2 31.4-3.2 31.4-31.4-3.2-31.4-3.2 6.4-62.8zm50.1 132.8l-62.8-6.3 6.3-62.8 31.4 3.2 31.4 3.2-3.2 31.4-3.1 31.3zm63.7 6.4l-62.8-6.3 3.2-31.4 3.2-31.4 31.4 3.2 31.4 3.2-3.2 31.4-3.2 31.3zm63.8 6.4l-62.8-6.3 3.2-31.4 3.2-31.4 31.4 3.2 31.4 3.2-3.2 31.4-3.2 31.3zm63.8 6.4l-62.8-6.3 3.2-31.4 3.2-31.4 31.4 3.2 31.4 3.2-3.2 31.4-3.2 31.3zm63.8 6.4l-62.8-6.3 3.2-31.4 3.2-31.4 31.4 3.2 31.4 3.2-3.2 31.4-3.2 31.3zm63.8 6.4l-62.8-6.3 3.2-31.4 3.2-31.4 31.4 3.2 31.4 3.2-3.2 31.4-3.2 31.3zm63.7 6.4l-62.8-6.3 3.2-31.4 3.2-31.4 31.4 3.2 31.4 3.2-3.2 31.4-3.2 31.3zm63.8 6.4l-62.8-6.3 3.2-31.4 3.2-31.4 31.4 3.2 31.4 3.2-6.4 62.7zm6.4-63.7l-31.4-3.2-31.4-3.2 3.2-31.4 3.2-31.4 31.4 3.2 31.4 3.2-6.4 62.8zm6.4-63.8l-31.4-3.2-31.4-3.2 3.2-31.4 3.2-31.4 31.4 3.2 31.4 3.2-6.4 62.8zm6.4-63.8l-31.4-3.2-31.4-3.2 3.2-31.4 3.2-31.4 31.4 3.2 31.4 3.2-6.4 62.8zm6.4-63.8l-31.4-3.2-31.4-3.2 3.2-31.4 3.2-31.4 31.4 3.2 31.4 3.2-6.4 62.8zm6.4-63.8l-31.4-3.2-31.4-3.2 3.2-31.4 3.2-31.4 31.4 3.2 31.4 3.2-6.4 62.8zm6.4-63.7l-31.4-3.2-31.4-3.2 3.2-31.4 3.2-31.4 31.4 3.2 31.4 3.2-6.4 62.8zm-25-67l-31.4-3.2 3.2-31.4 3.2-31.4 62.8 6.3-6.3 62.8-31.5-3.1z" class="st0"/><path fill="#120668" d="M237.8 115.5l-9.1-19.3-9.1-19.3 38.7-18.3 18.3 38.7-38.8 18.2zm-.7.4l-38.7 18.3-9.1-19.3-9.1-19.3 38.7-18.3 9.1 19.3 9.1 19.3zm-39.4 18.6L159 152.7 140.8 114l38.7-18.3 9.1 19.3 9.1 19.5zm21.6-58.4l-39.4 18.6-40.1 18.9 18.9 40.1 78.8-37.2 40.1-18.9-18.9-40.1-39.4 18.6z"/><path d="M766.8 733.5l12.2-27.7 27.7 12.2-12.2 27.7-27.7-12.2zm40.8-15.8l-29-12.8-12.8 29 29 12.8 12.8-29z" class="st0"/><path fill="#110e77" d="M921.9 94.8l-14-31.6 31.6-14 14 31.6-31.6 14zm-.4 1l33-14.6-14.6-33-33 14.6 14.6 33z"/><path d="M1021.6 704.1l-7.9-17.8 17.8-7.9 7.9 17.8-17.8 7.9zm-.3.8l19-8.4-8.4-19-19 8.4 8.4 19z" class="st0"/><path fill="#120667" fill-rule="evenodd" d="M513.6 248.3l9.1-2.5-2.5-9.1-9.1 2.4 2.5 9.2z" clip-rule="evenodd"/><linearGradient id="SVGID_1_" x1="984.487" x2="939.154" y1="403.833" y2="492.722" gradientTransform="matrix(1 0 0 -1 0 800)" gradientUnits="userSpaceOnUse"><stop offset="0" stop-color="#1b1686"/><stop offset=".248" stop-color="#1e1d8f"/><stop offset=".654" stop-color="#2631a8"/><stop offset="1" stop-color="#2f46c2"/></linearGradient><path fill="url(#SVGID_1_)" d="M943.5 385.3l34.6 3.4 6.2-62.4-34.7-3.4z"/><path fill="#3554d3" d="M894 320.7h62.7v62.7H894z" transform="matrix(.09748 -.9952 .9952 .09748 484.755 1238.63)"/><path d="M867.7 189.2h62.7v62.7h-62.7z" class="st0" transform="matrix(.09748 -.9952 .9952 .09748 591.893 1093.782)"/><path d="M844.3 439.8l-62.7-6.1 6.2-63 62.6 6.2zM901.6 510l-62.6-6.2 6.1-62.9 62.7 6.2zM1086.6 593l-62.9-6.3 6.4-62.8 62.6 6.2z" class="st0"/><g><path d="M1001.5 138.3h62.7V201h-62.7z" class="st0" transform="matrix(.09748 -.9952 .9952 .09748 763.297 1180.996)"/></g><g><linearGradient id="SVGID_2_" x1="930.706" x2="1178.706" y1="275.897" y2="245.674" gradientTransform="scale(1 -1) rotate(-21.439 -557.55 -154.552)" gradientUnits="userSpaceOnUse"><stop offset="0" stop-color="#3554d3"/><stop offset="1" stop-color="#2828ad"/></linearGradient><path fill="url(#SVGID_2_)" d="M1143 369c-4.9-3.4-10-7-15-10.8-9-8.5-18.2-16.8-24.1-23.5-3.4-4-6.9-9.1-9.7-17.1-6.1-16.9-7.1-54.7-7.1-54.7s1.7-8-5.1-9.5c-6.3-1.3-7.9 7.1-7.9 7.1-3.4 21-4.5 52.3-4.5 52.3-9.5-26.6-18.1-59-18.1-59s-2-9.2-8.2-7.4c-8.6 2.5-6.6 11-6.6 11 3.7 18.8 13 58.5 13 58.5-11.4-21.8-24.7-65.4-24.7-65.4s-2.4-7.2-9.7-4.6c-6.5 2.3-4.6 10.7-4.6 10.7 3.9 25.7 20 70.6 20 70.6-20.4-18.6-31.2-23.2-42.5-21.7-12.8 1.7-25.1.9-25.1.9s-6.3 1.4-7.1 6.1c-.7 3.9 1.8 9.8 7.3 11.6 5.9 1.9 14.4 1.6 23.3 2 10 .5 14.5 4.9 14.5 4.9 5.5 4.4 12.9 9.5 17.3 18 5.3 10.4-3.8 19.5-21.7 19.6-8 0-17.2 2.7-22.5 6.7-5.9 4.5-4.7 8.2-3.4 10.6 1.4 2.6 5.1 5.6 12.5 3.6 6.5-1.8 14.5-2.1 20.8.7 5.8 2.6 11.2 4.5 13.8 5.2 2.8.8 21.2 4.8 21.2 4.8 13.5 13.5 28.2 24.6 42.8 33.7 3 2 6.2 4.2 9.6 6.5L1143 369z"/><path d="M988.9 388.5s2.3-7.3-5.4-5.5c-5.9 1.4-9.2 2.4-10.1 4.5-.8 1.8-.8 3.5 3.3 3.1 4.3-.4 12.2-2.1 12.2-2.1zM973 306.7s3.4 6.8-4.4 6.3c-6.1-.4-9.4-.9-10.7-2.8-1.1-1.7-1.4-3.3 2.7-3.6 4.4-.3 12.4.1 12.4.1zM1026.8 257.2s-5.7 5-7.2-2.7c-1.2-6-1.6-9.4 0-11 1.3-1.5 2.8-2.2 4.2 1.7 1.3 4.2 3 12 3 12zM1053.1 260.4s-5.7 5.1-7.2-2.6c-1.2-6-1.6-9.3-.1-11 1.3-1.5 2.8-2.2 4.2 1.7 1.3 4.1 3.1 11.9 3.1 11.9zM1086.8 270.5s-7 2.9-5.9-4.9c.8-6 1.6-9.4 3.6-10.5 1.7-1 3.4-1.2 3.4 3-.1 4.4-1.1 12.4-1.1 12.4z" class="st7"/></g></svg>
