<svg width="1440" height="1100" xmlns="http://www.w3.org/2000/svg"><defs><linearGradient x1="0%" y1="50.003%" x2="100%" y2="50.003%" id="a"><stop stop-color="#0C022F" offset="0%"/><stop stop-color="#0C022F" offset="6%"/><stop stop-color="#0D0554" stop-opacity=".5" offset="59%"/><stop stop-color="#0D0554" stop-opacity=".23" offset="72%"/><stop stop-color="#0D0554" stop-opacity="0" offset="85%"/><stop stop-color="#0D0554" stop-opacity="0" offset="100%"/></linearGradient><linearGradient x1="121.183%" y1="48.798%" x2="-2.564%" y2="50.91%" id="d"><stop stop-color="#0C022F" offset="0%"/><stop stop-color="#0C022F" offset="32%"/><stop stop-color="#0D033A" offset="81%"/><stop stop-color="#0D0340" offset="100%"/></linearGradient><linearGradient x1="109.697%" y1="90.283%" x2="2.497%" y2="17.637%" id="e"><stop stop-color="#120667" offset="0%"/><stop stop-color="#1B1685" offset="100%"/></linearGradient><linearGradient x1="-21.812%" y1="37.481%" x2="106.63%" y2="61.549%" id="f"><stop stop-color="#4343DD" offset="0%"/><stop stop-color="#4343DD" stop-opacity="0" offset="100%"/></linearGradient><radialGradient cx="74.015%" cy="92.374%" fx="74.015%" fy="92.374%" r="39.852%" gradientTransform="matrix(.53763 0 0 1 .342 0)" id="b"><stop stop-color="#0D0554" offset="0%"/><stop stop-color="#0D0554" offset="20%"/><stop stop-color="#0D0554" stop-opacity="0" offset="100%"/></radialGradient><radialGradient cx="35.112%" cy="12.636%" fx="35.112%" fy="12.636%" r="72.382%" gradientTransform="matrix(.53763 0 0 1 .162 0)" id="c"><stop stop-color="#0C022F" offset="0%"/><stop stop-color="#0C022F" offset="24%"/><stop stop-color="#0D0554" stop-opacity="0" offset="100%"/></radialGradient></defs><g fill="none" fill-rule="evenodd"><path d="M0 0h1440v1100H0z"/><g transform="translate(0 727.142)"><path d="M568.155 78.694c-8.543 4.15-13.633 15.984-19.385 20.648-5.973 4.877-19.628 1.424-18.866-9.391.627-8.915 1.524-12.055 3.118-18.684 0 0 1.424-7.703 10.886-6.643 8.158.912 12.885 4.174 17.769 4.11 4.492-.064 9.696-4.088 9.469-9.799-.136-3.332-9.113-5.838-9.113-5.838s-13.776-5.369-24.825-5.283c-10.465.078-20.26 3.047-25.629 28.025 0 0-2.563-44.145-8.486-67.47 0 0-1.424-7.876-7.752-7.498-7.12.427-6.621 7.455-6.621 7.455s4.406 42.051 2.527 64.729c0 0-6.357-37.175-10.01-54.576 0 0-1.38-7.982-9.596-7.035-5.952.712-4.322 9.256-4.322 9.256s4.372 30.681 5.852 56.833c0 0-12.252-26.294-22.781-42.97 0 0-4.464-6.593-9.326-3.182-5.34 3.752-.947 9.968-.947 9.968s14.367 35.237 15.292 51.799c.434 7.832-.67 10.68-1.424 15.165-2.136 9.1-6.236 16.05-10.237 22.828-1.11 1.424-13.455 17.714-29.046 26.579-21.742 12.353-44.403 21.667-83.295 14.09-38.628-7.518-75.278-9.569-109.785-2.071a202.73 202.73 0 00-35.474 11.157l-.641.263a185.838 185.838 0 00-38.778 22.18C126.475 217.045 63.864 235.766.488 235.766c-.488 0-.488 75.79-.488 75.79 26.077.766 86.075-7.377 135.105-20.925 49.03-13.548 58.68-29.117 93.601-38.598 24.362-6.935 53.266-7.006 84.42-1.317 77.057 14.07 122.599-8.601 149.893-27.49 32.984-22.828 46.118-43.555 48.802-47.848 8.693-15.301 15.221-25.633 19.009-34.27 0 0 19.677-13.122 21.727-14.823 1.908-1.581 6.607-5.312 9.675-10.346 3.069-5.034 6.044-11.549 11.505-21.73 2.214-4.13 3.666-7.441 4.022-8.915 1.396-4.194-3.467-9.584-9.604-6.6z" fill="#2D2DBA" fill-rule="nonzero"/><path d="M568.155 78.694c-8.543 4.15-13.633 15.984-19.385 20.648-5.973 4.877-19.628 1.424-18.866-9.391.627-8.915 1.524-12.055 3.118-18.684 0 0 1.424-7.703 10.886-6.643 8.158.912 12.885 4.174 17.769 4.11 4.492-.064 9.696-4.088 9.469-9.799-.136-3.332-9.113-5.838-9.113-5.838s-13.776-5.369-24.825-5.283c-10.465.078-20.26 3.047-25.629 28.025 0 0-2.563-44.145-8.486-67.47 0 0-1.424-7.876-7.752-7.498-7.12.427-6.621 7.455-6.621 7.455s4.406 42.051 2.527 64.729c0 0-6.357-37.175-10.01-54.576 0 0-1.38-7.982-9.596-7.035-5.952.712-4.322 9.256-4.322 9.256s4.372 30.681 5.852 56.833c0 0-12.252-26.294-22.781-42.97 0 0-4.464-6.593-9.326-3.182-5.34 3.752-.947 9.968-.947 9.968s14.367 35.237 15.292 51.799c.434 7.832-.67 10.68-1.424 15.165-2.136 9.1-6.236 16.05-10.237 22.828-1.11 1.424-13.455 17.714-29.046 26.579-21.742 12.353-44.403 21.667-83.295 14.09-38.628-7.518-75.278-9.569-109.785-2.071a202.73 202.73 0 00-35.474 11.157l-.641.263a185.838 185.838 0 00-38.778 22.18C126.475 217.045 63.864 235.766.488 235.766c-.488 0-.488 75.79-.488 75.79 26.077.766 86.075-7.377 135.105-20.925 49.03-13.548 58.68-29.117 93.601-38.598 24.362-6.935 53.266-7.006 84.42-1.317 77.057 14.07 122.599-8.601 149.893-27.49 32.984-22.828 46.118-43.555 48.802-47.848 8.693-15.301 15.221-25.633 19.009-34.27 0 0 19.677-13.122 21.727-14.823 1.908-1.581 6.607-5.312 9.675-10.346 3.069-5.034 6.044-11.549 11.505-21.73 2.214-4.13 3.666-7.441 4.022-8.915 1.396-4.194-3.467-9.584-9.604-6.6z" fill="url(#a)" fill-rule="nonzero"/><path d="M568.155 78.694c-8.543 4.15-13.633 15.984-19.385 20.648-5.973 4.877-19.628 1.424-18.866-9.391.627-8.915 1.524-12.055 3.118-18.684 0 0 1.424-7.703 10.886-6.643 8.158.912 12.885 4.174 17.769 4.11 4.492-.064 9.696-4.088 9.469-9.799-.136-3.332-9.113-5.838-9.113-5.838s-13.776-5.369-24.825-5.283c-10.465.078-20.26 3.047-25.629 28.025 0 0-2.563-44.145-8.486-67.47 0 0-1.424-7.876-7.752-7.498-7.12.427-6.621 7.455-6.621 7.455s4.406 42.051 2.527 64.729c0 0-6.357-37.175-10.01-54.576 0 0-1.38-7.982-9.596-7.035-5.952.712-4.322 9.256-4.322 9.256s4.372 30.681 5.852 56.833c0 0-12.252-26.294-22.781-42.97 0 0-4.464-6.593-9.326-3.182-5.34 3.752-.947 9.968-.947 9.968s14.367 35.237 15.292 51.799c.434 7.832-.67 10.68-1.424 15.165-2.136 9.1-6.236 16.05-10.237 22.828-1.11 1.424-13.455 17.714-29.046 26.579-21.742 12.353-44.403 21.667-83.295 14.09-38.628-7.518-75.278-9.569-109.785-2.071a202.73 202.73 0 00-35.474 11.157l-.641.263a185.838 185.838 0 00-38.778 22.18C126.475 217.045 63.864 235.766.488 235.766c-.488 0-.488 75.79-.488 75.79 26.077.766 86.075-7.377 135.105-20.925 49.03-13.548 58.68-29.117 93.601-38.598 24.362-6.935 53.266-7.006 84.42-1.317 77.057 14.07 122.599-8.601 149.893-27.49 32.984-22.828 46.118-43.555 48.802-47.848 8.693-15.301 15.221-25.633 19.009-34.27 0 0 19.677-13.122 21.727-14.823 1.908-1.581 6.607-5.312 9.675-10.346 3.069-5.034 6.044-11.549 11.505-21.73 2.214-4.13 3.666-7.441 4.022-8.915 1.396-4.194-3.467-9.584-9.604-6.6z" fill="url(#b)" fill-rule="nonzero"/><path d="M568.155 78.694c-8.543 4.15-13.633 15.984-19.385 20.648-5.973 4.877-19.628 1.424-18.866-9.391.627-8.915 1.524-12.055 3.118-18.684 0 0 1.424-7.703 10.886-6.643 8.158.912 12.885 4.174 17.769 4.11 4.492-.064 9.696-4.088 9.469-9.799-.136-3.332-9.113-5.838-9.113-5.838s-13.776-5.369-24.825-5.283c-10.465.078-20.26 3.047-25.629 28.025 0 0-2.563-44.145-8.486-67.47 0 0-1.424-7.876-7.752-7.498-7.12.427-6.621 7.455-6.621 7.455s4.406 42.051 2.527 64.729c0 0-6.357-37.175-10.01-54.576 0 0-1.38-7.982-9.596-7.035-5.952.712-4.322 9.256-4.322 9.256s4.372 30.681 5.852 56.833c0 0-12.252-26.294-22.781-42.97 0 0-4.464-6.593-9.326-3.182-5.34 3.752-.947 9.968-.947 9.968s14.367 35.237 15.292 51.799c.434 7.832-.67 10.68-1.424 15.165-2.136 9.1-6.236 16.05-10.237 22.828-1.11 1.424-13.455 17.714-29.046 26.579-21.742 12.353-44.403 21.667-83.295 14.09-38.628-7.518-75.278-9.569-109.785-2.071a202.73 202.73 0 00-35.474 11.157l-.641.263a185.838 185.838 0 00-38.778 22.18C126.475 217.045 63.864 235.766.488 235.766c-.488 0-.488 75.79-.488 75.79 26.077.766 86.075-7.377 135.105-20.925 49.03-13.548 58.68-29.117 93.601-38.598 24.362-6.935 53.266-7.006 84.42-1.317 77.057 14.07 122.599-8.601 149.893-27.49 32.984-22.828 46.118-43.555 48.802-47.848 8.693-15.301 15.221-25.633 19.009-34.27 0 0 19.677-13.122 21.727-14.823 1.908-1.581 6.607-5.312 9.675-10.346 3.069-5.034 6.044-11.549 11.505-21.73 2.214-4.13 3.666-7.441 4.022-8.915 1.396-4.194-3.467-9.584-9.604-6.6z" fill="url(#c)" fill-rule="nonzero"/><path d="M574.293 93.858s-6.909-.08-3.198-6.495c2.091-3.608 3.444-5.333 5.6-5.492 1.86-.144 3.096.823 1.715 3.861-1.679 3.753-4.117 8.126-4.117 8.126zm-14.731-42s-4.484 5.535 1.741 6.96c5.559 1.276 6.991 1.492 8.596 0 1.433-1.238 1.999-3.029-1.669-4.304-3.818-1.306-8.668-2.656-8.668-2.656zM489.967 15.43s5.905 2.506 4.923-4.608c-.575-4.172-1.513-5.57-3.374-6.658-1.353-.793-2.734-.063-2.487 2.395.407 3.954.938 8.87.938 8.87zm-22.019 9.092s6.055 2.276 4.907-5.021c-.591-3.778-.923-5.397-2.886-6.307-1.681-.795-3.211-.39-2.937 3.504.303 4.074.916 7.824.916 7.824zm-25.196 21.336s6.699.104 3.272-6.15c-1.931-3.534-2.507-4.613-4.592-4.828-1.798-.181-3.203.737-1.96 3.666a251.102 251.102 0 003.28 7.312z" fill="#627AEF" fill-rule="nonzero"/><path d="M.342.391h84.727v26.104H.342z" transform="rotate(46.24 65.784 582.3)" fill="url(#d)"/><circle fill="url(#e)" cx="459.5" cy="170.358" r="19.5"/><circle fill="#2828AD" cx="459" cy="170.858" r="16"/><path d="M474.922 172.858c.057-.546.078-1.093.078-1.641 0-8.974-7.242-16.36-16.039-16.36-8.196 0-15.14 6.404-15.961 14.72l31.922 3.28z" fill="url(#f)" fill-rule="nonzero"/><path d="M462 156.858l-3.966 12.812v.098a1.63 1.63 0 00-.034.361c0 .948.763 1.729 1.69 1.729.846 0 1.56-.635 1.685-1.481v-.098l.625-13.421z" fill="#03003D" fill-rule="nonzero"/><path d="M468 177.858l-7.05-8.503a.46.46 0 00-.072-.075 1.703 1.703 0 00-1.115-.422c-.967 0-1.763.831-1.763 1.842 0 .548.235 1.07.64 1.42l.085.06 9.275 5.678z" fill="#03003D" fill-rule="nonzero"/></g></g></svg>