<svg version="1.1" id="Layer_1" xmlns="http://www.w3.org/2000/svg" x="0" y="0" viewBox="0 0 1440 1100" xml:space="preserve"><style>.st1,.st2{fill:#627aef}.st2{fill-rule:evenodd;clip-rule:evenodd}</style><linearGradient id="SVGID_1_" gradientUnits="userSpaceOnUse" x1="990.459" y1="668.802" x2="1432.749" y2="668.802"><stop offset="0" stop-color="#4343dd"/><stop offset=".283" stop-color="#2828ad"/><stop offset=".696" stop-color="#201c96"/><stop offset="1" stop-color="#170f7d"/></linearGradient><path d="M1440 418.6c-24.4 17.6-38.7 30.4-38.7 30.4-50.5 47-122.6 75.7-163.7 84.5-52.1 11.2-128.3 16-128.3 16-78 8.8-119.8 30.1-164.6 67.5-44.3 36.9-72.3 88.7-79.1 146.3l-4.6 33.3c-13.9 20-23.1 24.8-38.9 33.4 0 0-10.1 5.3-5 11.7 4.5 5.7 13.1 4.9 13.1 4.9s18.5-.7 34.5-10.1c-.9 30.4-10.2 69.3-10.2 69.3-2.5 8.1.1 12.9 5.4 13.1 8.3.4 11.6-8.5 11.6-8.5 9-19.9 14.8-44.1 18-59.4 9.2 18.6 20.5 36 33.1 52.5 4.4 5.7 6.6 9.8 13.9 4.4 7.1-5.2 2.7-14.6 2.7-14.6s-16.3-31.8-24.3-48.5c0 0 41.8 42.6 39.9 40.9 4.4 4 11 6.8 17 0 4.8-5.4-1.5-13.9-1.5-13.9s-16.7-22.6-36.1-42.4c14.1 11.9 29.1 22.8 45.3 31.7 6.8 3.8 8.1 5.1 13.5-3 4.1-6.2-3.4-12.5-3.4-12.5s-14.2-11.6-27.4-25c-6.9-7-7.8-16.9-6.9-26.7.7-7.2 1.3-11.4 2.1-17.3.1-.6.1-1.1.2-1.7.1-1.1.3-2.3.4-3.6 9.6-70.6 76-120.7 152.8-125.4 26-1.6 110.8-5.7 164.3-18 56.5-13 124.3-51.5 165.1-84.5V418.6z" fill="url(#SVGID_1_)"/><path class="st1" d="M855.3 901.9s7.2-1.4 4.7 5.8c-2 5.6-3.3 8.6-5.4 9.3-1.8.6-3.4.4-2.6-3.5.9-4.2 3.3-11.6 3.3-11.6zM919.1 899.3s3.5-6.5 7.4 0c3.1 5 4.6 7.9 3.8 10-.7 1.8-1.8 3-4.4-.2-2.6-3.3-6.8-9.8-6.8-9.8zM949.2 880.2s2.8-6.8 7.4-.7c3.6 4.7 5.3 7.5 4.7 9.6-.5 1.8-1.5 3.1-4.4.3-2.9-3.1-7.7-9.2-7.7-9.2zM971 856.5s1.4-7.2 7.1-2.2c4.4 3.9 6.7 6.3 6.5 8.5-.2 1.9-.8 3.4-4.2 1.1-3.4-2.3-9.4-7.4-9.4-7.4z"/><path class="st2" d="M964.2 778.5l-103.6-27.4c-1.6-.4-3.2.5-3.6 2.1-.4 1.6.5 3.2 2.1 3.6l103.6 27.4c1.6.4 3.2-.5 3.6-2.1.5-1.6-.5-3.2-2.1-3.6zM966.3 765.7l-101.1-38c-1.5-.6-3.2.2-3.8 1.7-.6 1.5.2 3.2 1.7 3.8l101.1 38c1.5.6 3.2-.2 3.8-1.7.6-1.5-.2-3.2-1.7-3.8z"/><path class="st1" d="M827.9 826.8s6.4 4.7-1.1 8c-5.9 2.5-9.3 3.7-11.3 2.5-1.8-1-2.9-2.4.8-4.6 3.9-2.4 11.6-5.9 11.6-5.9z"/></svg>