<svg width="3840" height="1100" xmlns="http://www.w3.org/2000/svg"><defs><linearGradient x1="203833.066%" y1="19585.677%" x2="190699.063%" y2="3176.095%" id="a"><stop stop-color="#040451" stop-opacity="0" offset="0%"/><stop stop-color="#040451" stop-opacity=".51" offset="42%"/><stop stop-color="#040451" stop-opacity=".87" offset="79%"/><stop stop-color="#040451" offset="100%"/></linearGradient></defs><g fill="none" fill-rule="evenodd"><path d="M0 0h3840v1100H0z"/><path d="M3321.9 799.382l-3.282-32.726-3.29-32.726-.093-.918-3.29-32.726-3.282-32.726-.093-.918-6.579-65.452-.093-.918-6.572-65.452-.093-.918-3.29-32.726-3.282-32.726-.092-.918-6.58-65.452-.093-.918-3.282-32.726-3.29-32.726-.092-.918-6.573-65.452L3241.907 3l-.919.092-65.346 6.553v-.128l-66.436 6.666-67.34 6.737-66.421 6.66-66.422 6.665-132.843 13.318-66.442 6.68-66.422 6.66-66.414 6.659-66.4 6.716-65.51 6.566-67.348 6.752-65.51 6.574v-.036l-67.34 6.752-66.421 6.659-66.421 6.666-132.843 13.318-66.422 6.666-66.421 6.66-65.347 6.551v-.128l-66.428 6.68-67.34 6.752-66.422 6.66-66.421 6.666-132.843 13.318-66.422 6.666-65.467 6.566v-.07l-67.34 6.758-66.421 6.659-65.51 6.566-67.326 6.738-65.51 6.566v-.035l-67.34 6.751-66.443 6.638-132.843 13.318-66.422 6.666-66.421 6.68L599.012 1073l66.421-6.659 66.415-6.666 66.421-6.595 66.421-6.66 66.422-6.665 65.51-6.567 67.347-6.752 66.422-6.666 66.421-6.659 65.51-6.566 66.393-6.66v.065l67.34-6.752 66.422-6.666 132.842-13.318 66.422-6.666 132.843-13.318 65.346-6.56v.128l67.34-6.751 66.422-6.66 66.421-6.665 66.443-6.68 66.421-6.66 66.422-6.666 66.421-6.659 65.51-6.574v.043l67.34-6.759 132.843-13.318 65.51-6.573 67.348-6.752 66.414-6.659 66.421-6.666 132.843-13.318 66.422-6.666 132.843-13.318 65.346-6.56v.128l67.34-6.751-.093-.918-.007-.014zm-10.873-98.997l3.29 32.726-32.755 3.28-32.591 3.273-6.58-65.452 32.598-3.266 32.755-3.287 3.283 32.726zm-530.31 53.06l-3.283-32.727 65.51-6.574 6.58 65.453-32.756 3.286-32.755 3.28-3.297-32.719zm-797.058 79.936l-3.29-32.726 65.51-6.574 3.29 32.727 3.282 32.726-32.755 3.286-32.755 3.28-3.282-32.719zm-597.651 59.81l-3.29-32.725 65.51-6.574 3.29 32.726 3.282 32.726-32.755 3.287-32.755 3.28-3.282-32.72zM2671.03 329.209l65.51-6.567 6.58 65.452-65.51 6.567-6.573-65.452h-.007zM2085.527 521.06l-32.755 3.287-32.755 3.28-6.58-65.453 65.51-6.574 6.58 65.46zm-5.654-65.538l32.755-3.28 32.755-3.286 3.29 32.726 3.282 32.726-65.51 6.573-6.572-65.459zM2015.787 495l3.283 32.726-32.755 3.287-32.755 3.28-3.29-32.727-3.283-32.726 32.755-3.287 32.755-3.28 3.29 32.727zm-66.421 6.659l3.29 32.726-65.51 6.574-3.29-32.726-3.283-32.727 65.51-6.566 3.283 32.719zm-66.422 6.666l3.29 32.726-32.755 3.287-32.599 3.265-6.572-65.452 32.598-3.265 32.755-3.287 3.283 32.726zm-63.146 39.25l-32.598 3.273-32.755 3.286-6.58-65.452 32.755-3.287 32.592-3.265 6.586 65.445zm-69.554-26.074l3.282 32.726-65.51 6.574-6.58-65.453 32.756-3.28 32.755-3.286 3.297 32.719zm-63.14 39.385l-32.754 3.287-32.755 3.28-6.58-65.453 65.51-6.573 6.58 65.459zm-69.675-26.06l3.283 32.726-32.755 3.287-32.755 3.28-6.58-65.453 32.755-3.286 32.755-3.28 3.297 32.726zm-66.421 6.659l3.282 32.726-65.51 6.574-6.572-65.452 32.755-3.28 32.755-3.287 3.29 32.719zm-63.14 39.385l-32.754 3.287-32.755 3.28-3.29-32.726-3.283-32.726 65.51-6.574 6.573 65.46zm-69.703-26.06l3.29 32.726-65.51 6.574-3.29-32.726-3.283-32.726 32.755-3.287 32.755-3.28 3.283 32.72zm-66.415 6.666l3.29 32.726-65.51 6.56v-.064l-6.565-65.374 65.467-6.567 3.318 32.72zm-63.138 39.321l-32.755 3.28-32.755 3.287-3.283-32.726-3.29-32.726 32.755-3.287 32.755-3.28v.064l6.573 65.388zm-72.973-58.793l6.58 65.453-65.51 6.566-6.58-65.452 32.755-3.28 32.755-3.287zm-63.132 39.393l3.29 32.726-32.755 3.287-32.755 3.28-3.112-30.97-3.467-34.469 65.51-6.573 3.29 32.719zm-66.222 8.402l3.112 30.976-65.51 6.573-6.58-65.452 65.297-6.545h.206l3.475 34.448zm-66.592 4.916l3.282 32.726-32.755 3.28-32.755 3.286-6.579-65.452 32.755-3.28 32.755-3.286 3.297 32.726zm-56.51 105.705l-65.51 6.566-6.58-65.452 34.5-3.464 31.04-3.095 6.55 65.445zm-5.632-65.502l32.755-3.28 32.755-3.287 3.112 30.97 3.453 34.483-32.755 3.28-32.755 3.286-6.565-65.452zm69.533 24.317l-3.112-30.976 32.755-3.287 32.755-3.28 6.58 65.452-65.51 6.574-3.468-34.483zm66.592-4.916l-3.282-32.726 65.51-6.574 3.29 32.726 3.282 32.726-32.755 3.287-32.755 3.28-3.29-32.72zm66.422-6.66l-3.283-32.725 65.51-6.567 3.468 34.47 3.112 30.975-30.996 3.11-34.5 3.457-3.311-32.72zm66.6-4.915l-3.468-34.47 32.755-3.286 32.72-3.28 6.571 65.452-32.719 3.28-32.755 3.287-3.105-30.983zm62.96-41.064l32.755-3.28 32.755-3.287 3.283 32.726 3.29 32.726-65.468 6.567v-.064l-6.615-65.388zm69.683 26.06l-3.29-32.727 32.755-3.286 32.755-3.28 3.283 32.726 3.29 32.726-32.755 3.287-32.755 3.28-3.283-32.726zm66.421-6.66l-3.29-32.726 65.51-6.573 6.58 65.452-32.755 3.28-32.755 3.286-3.29-32.718zm66.415-6.659l-3.283-32.726 65.51-6.566 6.58 65.452-65.51 6.574-3.297-32.734zm66.421-6.666l-3.282-32.726 32.755-3.287 32.755-3.28 6.58 65.453-32.756 3.287-32.762 3.244-3.29-32.69zm63.14-39.378l65.51-6.573 6.579 65.452-65.51 6.566-6.58-65.445zm69.703 26.06l-3.282-32.726 32.755-3.28 32.755-3.286 6.58 65.452-65.51 6.573-3.298-32.733zm66.422-6.666l-3.283-32.726 32.755-3.287 32.598-3.265 6.573 65.452-32.599 3.272-32.755 3.28-3.29-32.726zm63.146-39.257l32.598-3.265 32.755-3.287 3.283 32.726 3.29 32.726-32.756 3.28-32.598 3.272-6.572-65.452zm69.561 26.081l-3.29-32.726 32.756-3.28 32.755-3.286 3.282 32.726 3.29 32.726-65.51 6.573-3.283-32.733zm69.712 26.06l-6.58-65.452 32.755-3.287 32.755-3.28 6.58 65.453-32.755 3.286-32.755 3.28zm63.131-39.385l-3.29-32.726 65.51-6.574 6.58 65.452-32.755 3.28-32.755 3.287-3.29-32.719zm66.415-6.659l-3.283-32.726 65.51-6.567 6.58 65.453-34.514 3.471-31.032 3.088-3.261-32.719zm66.421-6.652l-3.283-32.726 32.755-3.287 32.755-3.28 6.58 65.453-32.755 3.286-32.755 3.28-3.297-32.726zm66.422-6.659l-3.283-32.726 65.51-6.574 6.58 65.452-32.756 3.28-32.755 3.287-3.296-32.719zm63.138-39.385l34.493-3.458 31.003-3.109 6.58 65.453-65.51 6.573-6.566-65.459zm596.782-60.778l-32.755 3.287-32.755 3.28-3.282-32.727-3.29-32.726 65.51-6.573 6.573 65.459zm-5.653-65.538l32.755-3.28 32.755-3.286 3.282 32.726 3.29 32.726-65.51 6.574-6.572-65.46zm-64.086 39.478l3.29 32.726-65.51 6.574-3.283-32.726-3.29-32.726 32.755-3.287 32.755-3.28 3.283 32.72zm-66.422 6.66l3.29 32.725-32.755 3.28-32.755 3.287-6.572-65.452 65.51-6.567 3.282 32.726zm-63.131 39.384v.043l-32.755 3.287-32.755 3.28-6.58-65.453 65.51-6.573 6.58 65.416zm-69.69-26.038l3.282 32.726-65.51 6.573-6.58-65.452 32.756-3.287 32.755-3.28 3.297 32.72zm-66.422 6.659l3.283 32.726-32.755 3.28-32.755 3.286-3.083-30.969-3.461-34.476 32.755-3.28 32.755-3.286 3.261 32.719zm-66.222 8.409l3.112 30.976-32.755 3.287-32.755 3.28-3.29-32.727-3.282-32.726 65.289-6.552h.206l3.475 34.462zm-66.592 4.916l3.29 32.726-65.51 6.574-6.573-65.453 32.755-3.286 32.755-3.28 3.283 32.719zm-62.092 40.246l32.755-3.287 32.755-3.28 3.111 30.97 3.461 34.468-65.51 6.574-6.572-65.445zm69.533 24.317l-3.112-30.976 65.51-6.574 6.58 65.452-65.51 6.567-3.468-34.47zm69.89 27.81l-6.58-65.452 32.755-3.28 32.755-3.287 6.58 65.452-32.756 3.28-32.755 3.287zm63.124-39.392l-3.283-32.727 65.51-6.566 3.468 34.462 3.112 30.976-31.054 3.095-34.513 3.45-3.24-32.69zm66.6-4.91l-3.461-34.468 65.51-6.574 6.565 65.41-32.755 3.286-32.755 3.28-3.105-30.933zm62.953-41.17l32.755-3.28 32.755-3.287 3.29 32.726 3.282 32.726-65.51 6.574-6.572-65.46zm69.704 26.06l-3.29-32.726 32.755-3.287 32.755-3.28 3.29 32.726 3.283 32.726-32.755 3.287-32.755 3.28-3.283-32.726zm66.422-6.66l-3.29-32.725 65.51-6.574 3.29 32.726 3.282 32.726-32.755 3.28-32.755 3.287-3.282-32.72zm66.421-6.658l-3.29-32.726 65.51-6.567 3.29 32.726 3.283 32.726-65.51 6.574-3.283-32.733zm66.421-6.667l-3.29-32.726 32.756-3.286 32.755-3.28 6.572 65.452-32.755 3.287-32.755 3.28-3.283-32.727zm29.373-36.923l-32.755 3.28-3.282-32.726-3.29-32.726 32.755-3.287 32.755-3.28 3.282 32.726 3.29 32.726-32.755 3.287zm-6.672-66.398l-32.755 3.286-6.572-65.452 65.51-6.566 6.58 65.452-32.763 3.28zm-33.68 3.265v.114l-32.756 3.28-32.755 3.286-3.29-32.726-3.282-32.726 3.276 32.613 3.29 32.726 32.754-3.28 32.762-3.287zm-69.698-25.946l3.29 32.726-32.755 3.287-32.755 3.28-3.29-32.726-3.282-32.726 65.51-6.574 3.282 32.733zm-66.421 6.66l3.29 32.725-65.51 6.574-3.29-32.726-3.283-32.726 65.51-6.567 3.283 32.72zm-129.553 46.079l-32.755 3.287-32.755 3.28-6.573-65.453 65.51-6.573 6.573 65.459zm-66.415 6.659l-65.51 6.573-3.282-32.726-3.29-32.726 65.51-6.566 6.572 65.445zm-69.71-26.06l3.289 32.726-32.79 3.258-32.756 3.287-6.58-65.452 65.51-6.566 3.326 32.747zm-63.133 39.385l-1.26.157-64.242 6.402-6.58-65.452 65.51-6.573 6.572 65.466zm-69.704-26.06l3.283 32.726-65.51 6.574-6.58-65.452 65.51-6.567 3.297 32.72zm-56.523 105.705l-30.975 3.11-34.521 3.485-6.58-65.452 65.51-6.566 6.566 65.423zm-69.704-26.06l3.282 32.726-32.755 3.28-32.755 3.287-6.58-65.452 65.51-6.574 3.298 32.733zm-66.422 6.667l3.283 32.726-32.755 3.286-32.755 3.28-6.58-65.452 32.755-3.287 32.755-3.28 3.297 32.727zm-36.13-30.357l-32.755 3.286-3.112-30.976-3.46-34.469 65.51-6.566 3.282 32.726 3.29 32.726-32.755 3.273zm-36.785-27.604l3.111 30.976-32.755 3.28-32.755 3.286-3.282-32.726-3.29-32.726 65.51-6.566 3.46 34.476zm-66.6 4.916l3.29 32.726-32.755 3.287-32.755 3.28-3.283-32.727-3.29-32.726 65.51-6.573 3.283 32.733zm-66.421 6.659l3.29 32.726-65.51 6.574-6.58-65.452 65.51-6.567 3.29 32.719zm-66.415 6.659l3.283 32.726-65.51 6.567-6.58-65.453 65.51-6.566 3.297 32.726zm-63.139 39.392l-32.755 3.287-32.598 3.266-6.572-65.453 65.389-6.552 6.536 65.452zm-66.435 6.531l-32.592 3.273-32.755 3.287-3.282-32.726-3.29-32.727 65.346-6.552 6.573 65.445zm-69.555-26.074l3.29 32.726-32.755 3.28-32.755 3.287-3.283-32.726-3.29-32.726 65.51-6.567 3.283 32.726zm-66.421 6.666l3.29 32.726-65.51 6.567-3.283-32.726-3.29-32.726 65.51-6.574 3.283 32.733zm-66.422 6.66l3.29 32.725-65.51 6.574-6.572-65.452 65.51-6.567 3.282 32.72zm-63.117 39.27v.114l-32.755 3.28-32.755 3.287-6.58-65.452 3.276 32.612 3.29 32.726 32.754-3.28 32.77-3.286zm-69.726-25.938l3.29 32.726-32.755 3.286-32.755 3.28-6.58-65.452 65.51-6.574 3.29 32.734zm-66.414 6.659l3.283 32.726-65.51 6.573-6.58-65.452 65.51-6.566 3.297 32.719zm-66.422 6.659l3.283 32.726-65.467 6.56v-.065l-6.551-65.345 65.467-6.567 3.268 32.69zm-63.146 39.328l-32.719 3.28-32.755 3.286-6.572-65.452 65.467-6.566 6.58 65.452zm-66.385 6.659l-32.755 3.28-32.755 3.286-3.283-32.726-3.29-32.726 65.51-6.566 6.573 65.452zm-69.712-26.06l3.29 32.726-32.755 3.287-32.755 3.28-6.572-65.453 65.51-6.573 3.282 32.733zm-63.131 39.378l-1.254.128-64.25 6.446-3.282-32.726-3.29-32.727 65.51-6.566 6.566 65.445zm-69.712-26.06l3.29 32.726-32.755 3.28-32.755 3.287-6.572-65.452 65.51-6.567 3.282 32.726zm-56.48 105.684l-30.997 3.109-34.506 3.457-3.283-32.726-3.29-32.726 65.51-6.573 6.565 65.459zm-69.712-26.06l3.29 32.726-32.755 3.287-32.755 3.28-3.283-32.726-3.29-32.727 32.756-3.286 32.755-3.28 3.282 32.726zm-29.365 36.924l32.755-3.28 6.572 65.452-32.755 3.287-32.755 3.28-6.58-65.453 32.763-3.286zm6.665 66.362l32.755-3.28 6.58 65.453-32.756 3.287-32.755 3.28-3.29-32.727-3.282-32.726 32.748-3.287zm36.956 29.347l-3.283-32.726 65.51-6.574 6.58 65.452-32.755 3.28-32.755 3.287-3.297-32.719zm63.153-39.35l32.755-3.28 32.755-3.286 6.572 65.452-34.5 3.458-31.003 3.109-6.58-65.453zm66.421-6.659l65.51-6.566 3.283 32.726 3.29 32.726-65.51 6.574-6.573-65.46zm69.712 26.06l-3.29-32.726 65.51-6.573 6.58 65.452-32.756 3.287-32.755 3.28-3.29-32.72zm63.131-39.385l34.5-3.457 30.996-3.11 6.58 65.453-65.51 6.566-6.566-65.452zm69.704 26.06l-3.282-32.726 32.755-3.287 32.755-3.28 6.572 65.453-34.464 3.457-31.003 3.11-3.333-32.727zm63.146-39.314l65.468-6.566 6.572 65.452-32.755 3.287-32.755 3.28-6.53-65.453zm66.386-6.659l32.755-3.287 32.755-3.28 3.29 32.727 3.283 32.726-32.755 3.287-32.755 3.28-6.573-65.453zm69.711 26.06l-3.29-32.726 65.51-6.574 3.29 32.726 3.283 32.726-32.755 3.28-32.755 3.287-3.283-32.719zm66.422-6.659l-3.29-32.726 32.755-3.287 32.755-3.28 3.283 32.726 3.29 32.727-65.51 6.573-3.283-32.733zm66.421-6.666l-3.29-32.726 32.756-3.287 32.755-3.28 3.282 32.726 3.29 32.726-32.755 3.287-32.755 3.28-3.283-32.726zm66.4-6.624l-3.29-32.726 65.51-6.573 3.283 32.726 3.29 32.726-32.755 3.28-32.755 3.286-3.283-32.719zm66.422-6.666l-3.29-32.726 32.755-3.287 32.755-3.28 3.283 32.727 3.29 32.726-65.51 6.573-3.283-32.733zm69.711 26.067l-6.58-65.452 32.756-3.287 32.598-3.265 6.58 65.452-32.599 3.273-32.755 3.28zm59.856-71.983l32.599-3.265 32.755-3.287 3.29 32.726 3.282 32.726-32.755 3.28-32.598 3.272-6.573-65.452zm69.612 26.053l-3.29-32.726 65.51-6.567 6.573 65.452-65.51 6.574-3.283-32.733zm63.132-39.378l65.51-6.574 3.282 32.726 3.29 32.726-32.755 3.287-32.755 3.28-6.572-65.445zm69.71 26.06l-3.289-32.726 32.755-3.28 32.755-3.287 3.283 32.726 3.29 32.726-32.756 3.28-32.755 3.287-3.282-32.726zm66.422-6.666l-3.29-32.726 32.756-3.287 32.755-3.28 3.282 32.726 3.29 32.726-65.51 6.574-3.283-32.733zm66.422-6.66l-3.29-32.725 65.51-6.574 3.283 32.726 3.29 32.726-32.756 3.287-32.755 3.28-3.282-32.72zm66.421-6.658l-3.29-32.726 65.51-6.574 3.283 32.726 3.29 32.726-32.755 3.28-32.755 3.287-3.283-32.72zm66.422-6.667l-3.29-32.726 65.51-6.566 6.572 65.452-65.51 6.574-3.282-32.734zm63.146-39.342l32.755-3.287 32.755-3.28 6.572 65.453-34.5 3.464-30.996 3.11-6.586-65.46zm66.421-6.659l65.51-6.574 3.29 32.726 3.283 32.726-32.755 3.287-32.756 3.28-6.572-65.445zm69.711 26.06l-3.29-32.726 32.756-3.28 32.755-3.287 6.572 65.452-32.755 3.28-32.755 3.287-3.283-32.726zm63.132-39.385l34.5-3.458 31.003-3.109 3.283 32.726 3.29 32.726-65.51 6.574-6.566-65.46zm69.711 26.06l-3.29-32.726 65.51-6.574 6.573 65.41-34.493 3.457-31.003 3.109-3.297-32.676zm63.132-39.421l65.51-6.567 6.58 65.453-65.51 6.573-6.58-65.459zm66.393-6.659l32.755-3.287 32.755-3.28 6.58 65.453-32.756 3.286-32.755 3.28-6.579-65.452zm69.704 26.06l-3.283-32.726 65.51-6.574 6.58 65.452-32.755 3.28-32.755 3.287-3.297-32.72zm66.422-6.66l-3.283-32.725 32.755-3.28 32.755-3.287 6.58 65.452-65.51 6.574-3.297-32.733zm66.421-6.665l-3.283-32.726 32.755-3.287 32.755-3.28 6.58 65.452-32.755 3.287-32.755 3.28-3.297-32.726zm66.421-6.66l-3.29-32.725 65.51-6.574 3.29 32.726 3.283 32.726-32.755 3.28-32.755 3.287-3.283-32.72zm-3.368-33.643l-6.572-65.452 65.51-6.574 3.283 32.726 3.29 32.726-65.51 6.574zm26.083-69.643l-32.755 3.28-3.296-32.705-3.29-32.726 65.51-6.573 6.58 65.452-32.749 3.272zm-39.412-63.083l-6.58-65.452 65.51-6.574 3.29 32.727 3.282 32.726-65.502 6.573zm-6.658-66.39l-3.283-32.727-3.29-32.726 65.51-6.574 3.283 32.726 3.29 32.726-65.51 6.574zm-4.223-32.627l3.29 32.726-65.51 6.566-6.572-65.452 32.755-3.287 32.755-3.28 3.282 32.727zm-63.132 39.378l-65.51 6.573-3.282-32.726-3.29-32.726 65.51-6.566 6.572 65.445zm-69.71-26.06l3.289 32.726-65.51 6.566-3.283-32.726-3.29-32.726 65.51-6.573 3.283 32.733zm-66.422 6.666l3.29 32.726-65.51 6.566-6.573-65.452 32.755-3.287 32.755-3.28 3.283 32.727zm-63.146 39.413l-65.51 6.574-6.573-65.452 32.755-3.28 32.755-3.287 6.573 65.445zm-66.415 6.695l-65.51 6.567-6.572-65.453 1.253-.128 64.236-6.445 6.593 65.459zm-66.414 6.666l-65.467 6.56-3.29-32.726-3.283-32.727 32.755-3.286 32.755-3.28 6.53 65.46zm-69.74-26.095l3.29 32.726-65.51 6.566-6.572-65.452 32.755-3.28 32.755-3.286 3.282 32.726zm-63.131 39.385l-65.51 6.566-3.29-32.726-3.283-32.726 65.51-6.573 6.573 65.459zm-69.712-26.06l3.29 32.726-65.51 6.574-6.572-65.452 34.492-3.458 31.004-3.11 3.296 32.72zm-63.067 40.296l6.572 65.452-65.51 6.573-3.282-32.726-3.29-32.726 65.51-6.573zm-63.139 39.385l3.29 32.726-32.755 3.287-32.755 3.28-3.283-32.727-3.29-32.726 65.51-6.573 3.283 32.733zm-68.864-27.106l-6.58-65.452 32.756-3.28 32.755-3.287 3.29 32.726 3.282 32.726-65.503 6.567zm-4.208-32.626l3.282 32.726-65.51 6.566-3.111-30.969-3.432-34.476 30.996-3.109 34.5-3.464 3.275 32.726zm-66.222 8.409l3.111 30.969-65.51 6.573-3.29-32.726-3.282-32.726 65.51-6.566 3.46 34.476zm-66.593 4.909l3.29 32.726-65.51 6.566-3.29-32.726-3.282-32.726 65.51-6.574 3.282 32.734zm-66.421 6.694l3.29 32.726-65.51 6.567-6.573-65.452 32.755-3.287 32.755-3.28 3.283 32.726zm-63.132 39.378l-65.51 6.574-3.29-32.726-3.282-32.726 32.755-3.287 32.755-3.28 6.572 65.445zm-69.711-26.06l3.29 32.726-65.347 6.553-6.579-65.452 32.598-3.266 32.755-3.287 3.283 32.726zm-63.146 39.257l-65.346 6.553-6.58-65.452 32.755-3.287 32.599-3.266 6.572 65.452zm-69.555-26.074l3.283 32.726-65.51 6.574-6.58-65.452 32.756-3.287 32.755-3.28 3.296 32.72zm-66.421 6.66l3.283 32.725-65.51 6.567-3.29-32.726-3.283-32.726 65.51-6.574 3.29 32.733zm-66.422 6.665l3.29 32.727-65.51 6.566-6.572-65.452 32.755-3.287 32.755-3.28 3.283 32.726zm-63.131 39.378l-65.51 6.574-3.29-32.726-3.283-32.726 65.51-6.567 6.573 65.445zm-69.711-26.06l3.29 32.727-65.51 6.566-3.29-32.726-3.283-32.726 65.51-6.574 3.283 32.734zm-66.422 6.617l3.29 32.726-65.51 6.567-6.573-65.453 32.755-3.286 32.755-3.28 3.283 32.726zm-63.132 39.378l-65.51 6.566-6.572-65.452 32.755-3.28 32.755-3.286 6.572 65.452zm-66.428 6.602l-65.468 6.567-6.579-65.453 1.26-.128 64.207-6.438 6.58 65.452zm-66.393 6.666l-65.51 6.567-6.58-65.452 32.755-3.28 32.734-3.287 6.6 65.452zm-69.704-26.06l3.282 32.726-65.51 6.567-6.58-65.452 65.51-6.574 3.298 32.733zM1076.052 488l-65.51 6.574-6.579-65.452 32.755-3.287 32.755-3.28 6.58 65.445zm-69.703-26.06l3.282 32.726-65.51 6.567-6.58-65.452 34.5-3.458 31.004-3.109 3.304 32.726zm-63.075 40.296l6.58 65.452-65.51 6.567-3.29-32.726-3.283-32.726 65.503-6.567zm-63.132 39.385l3.29 32.726-65.51 6.574-3.29-32.726-3.282-32.726 65.51-6.567 3.282 32.72zm-68.864-27.098l-6.58-65.453 65.511-6.573 3.283 32.726 3.29 32.726-65.504 6.574zm-4.18-32.62l3.283 32.726-65.51 6.574-3.112-30.976-3.467-34.469 30.989-3.13 34.5-3.458 3.318 32.733zm3.362 33.673l6.579 65.452-32.755 3.28-32.755 3.286-3.112-30.976-3.46-34.469 65.503-6.573zm-58.838 72.936l65.51-6.574 3.282 32.726 3.29 32.726-65.51 6.574-3.283-32.726-3.29-32.726zm39.427 63.076l32.755-3.287L827.036 681l3.283 32.726-65.51 6.573-6.58-65.452 32.82-3.258zm6.665 66.356l32.755-3.28 6.58 65.452-65.511 6.574-3.29-32.726-3.282-32.727 32.748-3.293zm6.665 66.362l32.755-3.28 3.282 32.727 3.29 32.726-65.51 6.573-3.14-30.99-3.468-34.469 32.79-3.287zm36.963 29.347l-3.29-32.726 65.51-6.574 3.283 32.726 3.29 32.726-30.997 3.11-34.506 3.457-3.29-32.719zm69.711 26.067l-6.58-65.452 32.756-3.28 32.755-3.287 6.572 65.453-1.253.12-64.25 6.446zm59.82-72.076l31.004-3.108 34.5-3.458 3.29 32.726 3.282 32.726-32.755 3.28-32.755 3.287-6.565-65.453zm69.712 26.06l-3.29-32.726 32.755-3.287 32.755-3.28 3.29 32.727 3.283 32.726-65.51 6.574-3.283-32.734zm66.421-6.659l-3.29-32.726 65.51-6.573 3.29 32.726 3.283 32.726-30.996 3.109-34.5 3.457-3.297-32.719zm66.422-6.659l-3.29-32.726 65.51-6.566 3.283 32.726 3.29 32.726-32.756 3.28-32.755 3.286-3.282-32.726zm66.421-6.666l-3.29-32.726 31.004-3.109 34.464-3.457 6.58 65.452-32.756 3.28-32.755 3.286-3.247-32.726zm63.14-39.314l32.719-3.287 32.755-3.28 6.579 65.453-65.474 6.566v-.05l-6.58-65.402zm69.675 26.06l-3.283-32.726 65.51-6.574 6.58 65.452-32.755 3.287-32.755 3.28-3.297-32.719zm66.421-6.659l-3.282-32.726 32.755-3.28 32.755-3.287 6.58 65.453-32.756 3.28-32.755 3.286-3.297-32.726zm66.422-6.666l-3.283-32.726 65.51-6.567 6.58 65.452-65.51 6.574-3.297-32.733zm63.131-39.378l65.51-6.574 3.29 32.726 3.283 32.726-32.755 3.287-32.755 3.28-6.573-65.445zm69.712 26.06l-3.29-32.726 32.755-3.28 32.755-3.287 3.29 32.726 3.282 32.726-32.755 3.28-32.755 3.287-3.282-32.726zm66.421-6.666l-3.29-32.726 32.755-3.287 32.755-3.28 3.29 32.726 3.283 32.726-65.51 6.574-3.283-32.733zm66.422-6.66l-3.29-32.725 32.755-3.287 32.598-3.266 6.573 65.452-32.599 3.273-32.755 3.28-3.282-32.726zm63.146-39.256l32.598-3.266 32.755-3.287 6.58 65.452-32.756 3.28-32.598 3.273-6.58-65.452zm66.279-6.645l32.755-3.287 32.755-3.28 6.58 65.452-65.51 6.574-6.58-65.46zm69.704 26.06l-3.283-32.726 65.51-6.574 6.58 65.452-32.755 3.287-32.755 3.28-3.297-32.72zm66.421-6.66l-3.282-32.725 32.755-3.28 32.755-3.287 3.29 32.726 3.282 32.726-32.755 3.28-32.755 3.287-3.29-32.726zm66.422-6.666l-3.29-32.726 65.51-6.566 3.46 34.469 3.112 30.969-65.51 6.573-3.282-32.719zm66.6-4.908l-3.469-34.47 65.51-6.573 3.29 32.726 3.283 32.726-32.755 3.287-32.755 3.28-3.105-30.976zm66.221-8.41l-3.29-32.726 32.755-3.28 32.755-3.286 3.29 32.726 3.283 32.726-30.996 3.109-34.5 3.457-3.297-32.726zm66.422-6.666l-3.29-32.726 32.755-3.287 32.755-3.28 6.572 65.453-1.253.128-64.242 6.445-3.297-32.733zm63.153-39.342l30.996-3.11 34.5-3.457 6.579 65.452-65.51 6.574-6.565-65.46zm69.704 26.06l-3.283-32.726 65.51-6.574 3.29 32.726 3.283 32.726-65.51 6.567-3.29-32.72zm66.421-6.66l-3.282-32.725 32.755-3.28 32.755-3.287 3.29 32.726 3.282 32.726-30.996 3.116-34.5 3.458-3.304-32.733zm66.422-6.666l-3.283-32.726 65.51-6.566 3.29 32.726 3.283 32.726-65.51 6.574-3.29-32.734zm66.421-6.659l-3.29-32.726 31.004-3.109 34.492-3.464 6.58 65.452-32.755 3.287-32.741 3.25-3.29-32.69zm63.132-39.385v-.035l32.755-3.287 32.755-3.28 3.283 32.726 3.29 32.726-65.51 6.574-6.573-65.424zm69.754 26.025l-3.29-32.726 65.51-6.574 3.283 32.726 3.29 32.726-32.755 3.287-32.755 3.28-3.283-32.72zm66.421-6.66l-3.29-32.725 65.51-6.574 3.283 32.726 3.29 32.726-32.755 3.28-32.755 3.287-3.283-32.72zm66.422-6.666l-3.29-32.726 65.51-6.566 6.572 65.452-65.51 6.574-3.282-32.734zm63.132-39.378l65.51-6.573 3.282 32.726 3.29 32.726-32.755 3.287-32.755 3.28-6.572-65.446zm73 58.786l-6.579-65.452 32.755-3.28 32.755-3.286 6.58 65.452-32.755 3.28-32.755 3.286zm63.125-39.392l-3.282-32.726 32.755-3.287 32.755-3.28 6.579 65.453-65.51 6.573-3.297-32.733zm29.373-36.923l-32.755 3.287-6.58-65.453 32.755-3.286 32.755-3.28 3.29 32.726 3.283 32.726-32.748 3.28zm-6.665-66.363l-32.755 3.287-3.283-32.726-3.29-32.726 32.756-3.28 32.755-3.287 3.282 32.726 3.29 32.726-32.755 3.28zm-6.7-66.356l-32.756 3.287-6.572-65.452 32.755-3.28 32.755-3.287 6.58 65.453-32.763 3.28zm-6.666-66.362l-32.755 3.286-6.58-65.452 65.511-6.566 3.29 32.726 3.282 32.726-32.748 3.28zm-39.405-63.12l-3.283-32.725-3.29-32.726 32.755-3.28 32.755-3.287 6.58 65.452-65.517 6.567zm26.083-69.649l-32.755 3.287-3.29-32.726-3.283-32.726 65.51-6.567 3.29 32.727 3.283 32.726-32.755 3.28zm-36.957-29.346l3.29 32.726-32.755 3.28-32.755 3.286-3.29-32.726-3.282-32.726 65.51-6.574 3.282 32.734zm-66.421 6.666l3.29 32.726-32.755 3.287-32.755 3.28-3.29-32.727-3.283-32.726 32.755-3.287 32.755-3.28 3.283 32.727zm-66.421 6.659l3.29 32.726-65.51 6.573-3.29-32.726-3.283-32.726 32.755-3.28 32.755-3.286 3.283 32.719zm-66.422 6.701l3.29 32.727-32.755 3.286-32.755 3.28-3.29-32.726-3.283-32.726 65.51-6.574 3.283 32.733zm-66.421 6.66l3.29 32.726-32.756 3.286-32.755 3.28-6.572-65.452 32.755-3.287 32.755-3.28 3.283 32.727zm-63.132 39.378l-65.51 6.573-6.573-65.452 65.51-6.566 6.573 65.445zm-66.422 6.609l-65.282 6.545h-.206l-3.468-34.377-3.112-30.976 65.51-6.573 6.558 65.38zm-69.875-27.746l3.461 34.469-65.51 6.574-6.58-65.453 32.756-3.286 32.755-3.28 3.118 30.976zm-66.222 8.409l3.283 32.726-32.755 3.28-32.755 3.287-6.58-65.453 31.004-3.109 34.5-3.457 3.303 32.726zm-66.421 6.666l3.282 32.726-32.755 3.287-32.755 3.28-6.579-65.452 65.51-6.574 3.297 32.733zm-66.422 6.66l3.283 32.725-30.996 3.11-34.5 3.464-6.58-65.452 32.756-3.287 32.755-3.28 3.282 32.72zm-63.153 39.342l-65.51 6.573-3.282-32.726-3.29-32.726 65.51-6.566 6.572 65.445zm-69.71-26.06l3.289 32.726-32.755 3.28-32.755 3.286-6.58-65.452 65.51-6.574 3.29 32.734zm-63.133 39.385l-34.5 3.457-30.995 3.11-6.58-65.453 32.755-3.287 32.755-3.28 6.565 65.453zm-69.71-26.025l3.289 32.726-65.51 6.574-6.58-65.452 32.755-3.28 32.755-3.287 3.29 32.72zm-66.415 6.66l3.282 32.726-32.755 3.28-32.755 3.286-6.58-65.452 65.51-6.574 3.298 32.733zm-63.182 39.349l-32.755 3.287-32.755 3.28-6.58-65.453 65.51-6.566 6.58 65.452zm-69.682-26.088l3.282 32.726-65.51 6.573-6.58-65.452 32.756-3.28 32.755-3.286 3.297 32.719zm-66.422 6.659l3.283 32.726-32.755 3.28-32.599 3.272L1794.35 283l32.598-3.266 32.755-3.286 3.29 32.726zm-63.146 39.257l-32.598 3.272-32.755 3.28-3.283-32.726-3.29-32.726 32.755-3.287 32.599-3.265 6.572 65.452zm-69.562-26.074l3.29 32.726-65.51 6.573-3.283-32.726-3.29-32.726 65.51-6.566 3.283 32.719zm-66.421 6.659l3.29 32.726-32.755 3.28-32.755 3.286-6.58-65.452 65.51-6.574 3.29 32.734zm-66.414 6.666l3.282 32.726-32.755 3.287-32.755 3.28-6.58-65.453 32.756-3.287 32.755-3.28 3.297 32.727zm-66.422 6.673l3.283 32.726-65.51 6.574-6.58-65.452 32.755-3.28 32.755-3.287 3.297 32.72zm-66.421 6.666l3.282 32.726-32.748 3.294-32.755 3.28-6.58-65.452 65.51-6.574 3.29 32.726zm-66.422 6.66l3.283 32.725-32.755 3.287-32.755 3.28-6.58-65.452 32.755-3.287 32.755-3.28 3.297 32.726zm-63.139 39.377l-32.755 3.287-32.755 3.28v-.064l-6.565-65.374 65.467-6.567 6.608 65.438zm-66.421 6.602l-65.261 6.546h-.214l-3.46-34.47-3.09-30.94 32.754-3.287 32.755-3.28 6.516 65.431zm-69.854-27.817l3.46 34.476-32.754 3.28-32.755 3.287-3.283-32.726-3.29-32.726 32.755-3.28 32.755-3.287 3.112 30.976zm-66.222 8.417l3.29 32.726-32.755 3.286-32.755 3.28-3.283-32.726-3.29-32.726 30.975-3.073 34.507-3.465 3.311 32.698zm-66.421 6.659l3.29 32.726-65.51 6.573-3.283-32.726-3.29-32.726 65.51-6.566 3.283 32.719zm-66.422 6.659l3.29 32.726-30.996 3.109-34.507 3.457-6.572-65.452 32.755-3.28 32.755-3.286 3.275 32.726zm-63.146 39.35l-32.755 3.279-32.755 3.287-3.29-32.726-3.282-32.726 65.51-6.574 6.572 65.46zm-69.711-26.06l3.29 32.725-32.755 3.287-32.755 3.28-6.573-65.452 32.755-3.287 32.755-3.28 3.283 32.726zm-63.132 39.377l-34.5 3.465-31.003 3.109-3.282-32.726-3.29-32.726 32.755-3.28 32.755-3.287 6.565 65.445zm-69.71-26.06l3.289 32.726-65.51 6.567-3.283-32.726-3.29-32.726 65.51-6.574 3.283 32.733zm3.381 33.644l3.433 34.505 3.111 30.976-65.51 6.566-6.58-65.452 65.546-6.595zm6.651 66.391l3.468 34.47 3.112 30.975-32.755 3.287-32.755 3.28-3.29-32.726-3.283-32.726 65.503-6.56zm-26.083 69.65l32.755-3.287 3.283 32.726 3.29 32.726-65.51 6.567-6.58-65.452 32.762-3.28zm39.42 63.076l6.572 65.452-34.492 3.458-31.003 3.109-3.29-32.727-3.283-32.726 65.496-6.566zm-26.083 69.65l32.755-3.287 6.58 65.452-65.51 6.566-3.283-32.726-3.29-32.726 32.748-3.28zm39.392 63.118l3.46 34.47 3.112 30.975-32.755 3.28-32.755 3.287L708.463 827l-3.29-32.726 65.51-6.56zm-26.083 69.65l32.755-3.287 3.29 32.726 3.282 32.726-65.51 6.567-6.58-65.453 32.763-3.28zm36.956 29.34l-3.283-32.727 32.755-3.287 32.755-3.28 6.573 65.453-65.51 6.574-3.29-32.734zm63.132-39.379l34.5-3.464 31.002-3.11 3.29 32.727 3.283 32.726-32.755 3.287-32.755 3.28-6.565-65.446zm69.71 26.06l-3.289-32.726 65.296-6.545h.207l6.572 65.452-32.755 3.28-32.755 3.287-3.275-32.748zm63.154-39.35l32.755-3.279 32.755-3.287 6.58 65.452-65.51 6.574-6.58-65.46zm69.704 26.06l-3.283-32.725 65.51-6.567.129 1.252 6.45 64.186-32.754 3.287-32.755 3.28-3.297-32.712zm63.16-39.171v-.206l34.493-3.465 31.003-3.11 3.29 32.727 3.282 32.726-32.755 3.287-32.755 3.28-6.558-65.24zm69.683 25.84l-3.283-32.727 32.755-3.28 32.755-3.286 6.58 65.452-34.507 3.436-31.01 3.13-3.29-32.726zm63.132-39.386l32.755-3.287 32.755-3.28v.065l6.565 65.38-65.467 6.56-6.608-65.438zm66.428-6.595l65.51-6.566 3.283 32.726 3.29 32.726-32.755 3.287-32.755 3.28v-.065l-6.573-65.388zm69.683 26.06l-3.29-32.726 65.51-6.574 3.283 32.726 3.29 32.726-32.755 3.287-32.755 3.28-3.283-32.719zm66.421-6.659l-3.29-32.726 32.756-3.28 32.755-3.287 6.572 65.453-32.755 3.28-32.755 3.286-3.283-32.726zm63.132-39.385l32.755-3.287 32.755-3.28 6.58 65.453-65.51 6.573-6.58-65.46zm69.711 26.06l-3.29-32.726 65.51-6.574 6.58 65.452-32.755 3.287-32.755 3.28-3.29-32.72zm66.415-6.66l-3.283-32.725 32.755-3.28 32.755-3.287 6.58 65.452-32.755 3.28-32.755 3.287-3.297-32.726zm66.421-6.665l-3.282-32.726 65.51-6.567 6.579 65.452-65.51 6.574-3.297-32.733zm63.139-39.378l32.755-3.287 32.598-3.266 6.573 65.452-32.599 3.273-32.755 3.28-6.572-65.452zm66.429-6.538l32.598-3.266 32.755-3.287 3.283 32.726 3.29 32.726-32.756 3.28-32.598 3.273-6.572-65.452zm69.561 26.074l-3.29-32.726 65.51-6.567 3.283 32.726 3.29 32.726-65.51 6.574-3.283-32.733zm66.422-6.66l-3.29-32.725 65.51-6.574 6.58 65.452-32.756 3.287-32.755 3.28-3.29-32.72zm69.71 26.068l-6.579-65.452 32.755-3.28 32.755-3.287 6.58 65.452-32.755 3.28-32.755 3.287zm59.843-72.112l32.755-3.286 32.755-3.28 6.58 65.452-65.51 6.574-6.58-65.46zm69.704 26.06l-3.283-32.726 65.51-6.573 6.58 65.452-32.755 3.287-32.755 3.28-3.297-32.72zm63.139-39.385l34.492-3.457 31.004-3.11 6.58 65.453-32.756 3.28-32.755 3.286-6.565-65.452zm69.704 26.06l-3.283-32.726 65.29-6.545h.206l6.58 65.452-65.51 6.574-3.283-32.755zm63.153-39.342l32.755-3.287 32.755-3.28 3.283 32.726 3.29 32.726-32.756 3.287-32.755 3.28-6.572-65.452zm69.711 26.06l-3.29-32.726 65.51-6.574.129 1.26 6.451 64.185-32.755 3.28-32.755 3.287-3.29-32.712zm63.153-39.18v-.205l34.5-3.458 30.996-3.109 6.58 65.452-65.51 6.574-6.566-65.253zm69.683 25.854l-3.283-32.726 32.755-3.286 32.755-3.28 6.58 65.452-34.5 3.458-31.003 3.109-3.304-32.727zm63.139-39.378l65.51-6.573 6.565 65.41v.035l-65.51 6.566-6.565-65.438zm66.414-6.701l65.51-6.567 3.29 32.726 3.283 32.726-65.51 6.574-6.573-65.46zm69.704 26.06l-3.29-32.726 65.51-6.574 3.29 32.726 3.283 32.726-32.755 3.287-32.755 3.28-3.283-32.72zm66.422-6.66l-3.29-32.725 32.755-3.28 32.755-3.287 6.572 65.452-32.755 3.28-32.755 3.287-3.282-32.726zm63.132-39.384l32.755-3.287 32.755-3.28 3.29 32.726 3.282 32.726-65.51 6.574-6.572-65.46zm69.71 26.06l-3.289-32.727 65.51-6.573 3.29 32.726 3.282 32.726-32.755 3.287-32.755 3.28-3.282-32.72zm66.422-6.66l-3.29-32.726 32.756-3.28 32.755-3.286 3.282 32.726 3.29 32.726-32.755 3.28-32.755 3.286-3.283-32.726zm66.422-6.666l-3.29-32.726 65.51-6.566 6.572 65.452-65.51 6.573-3.282-32.733zm63.131-39.378l32.755-3.287 32.599-3.265 6.58 65.452-32.6 3.273-32.754 3.28-6.58-65.453zm32.656-4.204l-32.755 3.28-3.29-32.727-3.283-32.726 32.755-3.287 32.599-3.265 6.572 65.452-32.598 3.273zm-6.665-66.363l-32.755 3.28-6.58-65.453 32.755-3.286 32.599-3.266 6.572 65.452-32.591 3.273zm-6.665-66.363l-32.755 3.28-3.283-32.726-3.29-32.726 32.756-3.287 32.598-3.266 6.58 65.453-32.606 3.272zm-6.672-66.363l-32.755 3.287-3.29-32.726-3.283-32.726 32.755-3.287 32.599-3.265 6.572 65.452-32.598 3.265zm-6.665-66.362l-32.755 3.286-6.58-65.452 65.354-6.552 6.572 65.452-32.591 3.266zm-39.406-63.112l-3.29-32.726-3.282-32.726 32.755-3.287 32.598-3.265 6.573 65.452-65.354 6.552zM3161.956 212l-32.755 3.28-6.58-65.453 32.756-3.287 32.598-3.265 6.572 65.452-32.59 3.273zm-6.665-66.363l-32.755 3.28-6.58-65.453 32.756-3.286 32.598-3.266 6.58 65.452-32.599 3.273zm-36.963-29.347l3.29 32.726-65.51 6.574-6.58-65.452 32.755-3.28 32.755-3.287 3.29 32.72zm-63.132 39.385l-32.755 3.287-32.755 3.28-6.58-65.452 65.51-6.574 6.58 65.46zm-69.704-26.038l3.283 32.726-65.51 6.573-6.58-65.452 32.755-3.287 32.755-3.28 3.297 32.72zm-66.407 6.623l3.282 32.726-32.755 3.28-32.755 3.287-6.579-65.452 65.51-6.567 3.297 32.726zm-66.422 6.666l3.283 32.726-32.755 3.287-32.755 3.28-6.58-65.452 65.51-6.574 3.297 32.733zm-66.435 6.63l3.282 32.727-65.51 6.574-6.58-65.453 32.756-3.286 32.755-3.28 3.297 32.719zm-66.422 6.66l3.283 32.726-65.51 6.567-6.58-65.453 32.755-3.28 32.755-3.286 3.297 32.726zm-63.132 39.385v.036l-32.755 3.286-32.755 3.28-3.282-32.726-3.29-32.726 65.51-6.574 6.572 65.424zm-69.704-26.024l3.29 32.726-65.51 6.573-6.572-65.452 32.755-3.287 32.755-3.28 3.282 32.72zm-63.131 39.385l-34.5 3.457-31.003 3.11-3.283-32.727-3.29-32.726 32.755-3.28 32.755-3.286 6.566 65.452zm-69.733-26.032l3.29 32.726-65.51 6.567-6.573-65.452 34.5-3.465 31.003-3.109 3.29 32.733zm-63.132 39.378l-65.51 6.574-6.572-65.452 32.755-3.287 32.755-3.28 6.572 65.445zm-66.435 6.624l-65.51 6.573-3.461-34.469-3.112-30.976 32.755-3.28 32.755-3.286 6.573 65.438zm-69.89-27.803l3.468 34.469-32.755 3.287-32.755 3.28-3.29-32.727-3.282-32.726 30.996-3.109 34.5-3.464 3.118 30.99zm-66.222 8.409l3.29 32.726-32.755 3.287-32.755 3.28-6.572-65.452 32.755-3.287 32.755-3.28 3.282 32.726zm-63.131 39.378l-65.51 6.574-3.283-32.726-3.29-32.726 65.51-6.567 6.573 65.445zm-69.712-26.081l3.29 32.726-32.755 3.287-32.755 3.28-3.283-32.727-3.29-32.726 65.51-6.573 3.283 32.733zm-66.421 6.659l3.29 32.726-65.51 6.574-3.283-32.727-3.29-32.726 32.755-3.286 32.755-3.28 3.283 32.719zm-66.422 6.659l3.29 32.726-32.755 3.28-32.755 3.286-3.282-32.726-3.29-32.726 32.755-3.28 32.755-3.286 3.282 32.726zm-69.71-26.06l6.579 65.452-32.755 3.287-32.599 3.265-6.58-65.452 32.6-3.265 32.754-3.287zm-59.857 71.976l-32.62 3.301-32.755 3.28-3.29-32.726-3.282-32.726 32.755-3.287 32.598-3.266 6.594 65.424zm-69.555-26.074l3.29 32.726-65.51 6.574-6.572-65.453 32.755-3.28 32.755-3.286 3.282 32.719zm-63.131 39.406l-32.755 3.287-32.755 3.28-3.283-32.726-3.29-32.726 65.51-6.574 6.573 65.46zm-69.711-26.06l3.29 32.726-65.51 6.574-3.283-32.726-3.29-32.726 32.755-3.287 32.755-3.28 3.283 32.72zm-66.422 6.66l3.29 32.725-32.755 3.28-32.755 3.287-3.283-32.726-3.29-32.726 65.51-6.567 3.283 32.726zm-66.429 6.673l3.29 32.726-32.755 3.287-32.755 3.28-3.282-32.727-3.29-32.726 65.51-6.574 3.282 32.734zm-66.421 6.659l3.29 32.726-65.51 6.573-3.283-32.726-3.29-32.726 32.755-3.287 32.755-3.28 3.283 32.72zm-66.421 6.659l3.29 32.726-65.468 6.566v-.042l-6.572-65.374 32.719-3.28 32.755-3.287 3.276 32.69zm-63.14 39.32l-32.719 3.28-32.755 3.287-3.29-32.726-3.282-32.726 65.467-6.566 6.58 65.452zm-69.675-26.066l3.29 32.726-32.755 3.28-32.755 3.286-6.573-65.452 32.755-3.28 32.755-3.286 3.283 32.726zm-63.132 39.385l-34.5 3.457-31.003 3.11-3.29-32.727-3.282-32.726 65.51-6.573 6.565 65.459zm-69.71-26.06l3.289 32.726-65.51 6.574-6.573-65.452 34.493-3.458 31.003-3.109 3.297 32.719zm-63.133 39.385l-32.755 3.28-32.755 3.287-6.572-65.452 32.755-3.28 32.755-3.287 6.572 65.452zm-66.442 6.624l-65.51 6.566-3.461-34.469-3.112-30.969 65.51-6.573 6.573 65.445zm-69.883-27.81l3.461 34.469-65.51 6.573-6.58-65.452 31.004-3.109 34.5-3.457 3.125 30.976zm-66.222 8.409l3.283 32.726-65.51 6.573-6.572-65.452 32.755-3.28 32.755-3.286 3.29 32.719zm-63.153 39.42l-32.755 3.287-32.755 3.28-3.29-32.726-3.282-32.726 65.51-6.574 6.572 65.46zm-69.704-26.06l3.29 32.727-32.755 3.286-32.755 3.28-3.29-32.726-3.282-32.726 32.755-3.287 32.755-3.28 3.282 32.726zm-29.373 36.924l32.755-3.28 3.283 32.726 3.29 32.726-32.755 3.287-32.755 3.28-6.573-65.452 32.755-3.287zm6.673 66.363l32.755-3.28 3.29 32.726 3.282 32.726-65.51 6.567-6.58-65.452 32.763-3.287zm39.398 63.111l6.58 65.452-65.51 6.574-3.283-32.726-3.29-32.726 65.503-6.574zm-26.083 69.607l32.755-3.28 6.573 65.453-65.51 6.573-6.58-65.452 32.762-3.294zm6.672 66.363l32.755-3.28 3.29 32.726 3.283 32.726-32.755 3.287-32.755 3.28-3.29-32.726-3.283-32.726 32.755-3.287zm6.665 66.363l32.755-3.287 6.58 65.452-32.755 3.287-32.755 3.28-3.283-32.726-3.29-32.727 32.748-3.28zm6.672 66.363l32.755-3.287 3.283 32.726 3.29 32.726-32.755 3.287-32.755 3.28-6.58-65.453 32.762-3.28zm6.665 66.362l32.755-3.287 6.58 65.453-32.755 3.286-32.755 3.28-3.29-32.726-3.283-32.726 32.748-3.28zm6.665 66.363l32.755-3.287 3.283 32.726 3.29 32.726-32.756 3.287-32.755 3.28-3.282-32.726-3.29-32.726 32.755-3.28zm40.253 62.073l-6.58-65.452 65.51-6.567 6.58 65.452-32.755 3.28-32.755 3.287zm63.125-39.392l-3.283-32.726 32.755-3.287 32.755-3.28 6.58 65.452-31.004 3.11-34.5 3.464-3.303-32.733zm66.421-6.66l-3.282-32.725 65.51-6.574 3.111 30.976 3.468 34.469-32.755 3.287-32.755 3.28-3.297-32.712zm66.222-8.409l-3.111-30.976 32.755-3.28 32.755-3.286 6.58 65.452-65.51 6.567-3.469-34.477zm63.324-37.599l32.755-3.28 32.755-3.287 3.112 30.97 3.51 34.468-65.51 6.574-6.622-65.445zm69.533 24.317l-3.097-30.969 32.755-3.287 32.755-3.28 3.283 32.727 3.29 32.726-65.51 6.566-3.476-34.483zm66.6-4.916l-3.29-32.726 65.51-6.574 6.58 65.452-32.755 3.28-32.755 3.287-3.29-32.72zm66.421-6.66l-3.29-32.725 30.997-3.11 34.5-3.457 6.579 65.452-65.51 6.574-3.276-32.733zm66.422-6.665l-3.29-32.726 65.467-6.567 6.573 65.452-65.51 6.56-3.24-32.72zm63.139-39.314l32.72-3.287 32.754-3.28 3.29 32.726 3.283 32.726-65.468 6.567v-.064l-6.58-65.388zm136.097 19.4l-3.29-32.725 32.755-3.28 32.755-3.287 3.29 32.726 3.282 32.726-32.755 3.28-32.755 3.287-3.282-32.726zm66.421-6.666l-3.29-32.726 65.51-6.566 3.283 32.726 3.29 32.726-65.51 6.574-3.283-32.734zm66.422-6.659l-3.29-32.726 65.51-6.573 3.283 32.726 3.29 32.726-32.756 3.287-32.755 3.28-3.282-32.72zm66.421-6.659l-3.29-32.726 32.756-3.28 32.755-3.286 6.572 65.452-32.755 3.28-32.755 3.286-3.283-32.726zm63.132-39.385l32.755-3.287 32.755-3.28 3.283 32.727 3.29 32.726-65.51 6.573-6.573-65.459zm73 58.786l-6.579-65.452 32.755-3.287 32.599-3.265 6.58 65.452-32.6 3.272-32.754 3.28zm59.857-71.983l32.599-3.265 32.755-3.287 3.29 32.726 3.282 32.726-32.755 3.28-32.598 3.272-6.573-65.452zm69.555 26.074l-3.29-32.726 32.755-3.287 32.755-3.28 3.29 32.727L1986 866.2l-65.51 6.573-3.282-32.733zm132.843-13.318l-3.29-32.726 32.755-3.28 32.755-3.286 3.283 32.726 3.29 32.726-32.756 3.28-32.755 3.286-3.282-32.726zm66.421-6.666l-3.29-32.726 65.51-6.567 3.283 32.726 3.29 32.726-65.51 6.574-3.283-32.733zm66.422-6.66l-3.29-32.725 65.51-6.574 3.282 32.726 3.29 32.726-30.996 3.11-34.507 3.457-3.29-32.72zm66.421-6.658l-3.29-32.726 32.755-3.28 32.755-3.287 3.112 30.97 3.46 34.475-32.754 3.28-32.755 3.287-3.283-32.72zm66.222-8.41l-3.112-30.975 32.755-3.287 32.755-3.28 6.573 65.452-65.51 6.574-3.46-34.483zm63.324-37.599l32.755-3.287 32.755-3.28 3.112 30.97 3.46 34.469-32.755 3.287-32.755 3.28-6.572-65.439zm69.533 24.31l-3.111-30.969 65.51-6.573 3.29 32.726 3.282 32.726-65.51 6.566-3.46-34.476zm66.6-4.916l-3.29-32.726 32.755-3.28 32.755-3.287 3.283 32.727 3.29 32.726-65.51 6.573-3.283-32.733zm66.421-6.659l-3.29-32.726 31.004-3.109 34.5-3.458 3.282 32.726 3.29 32.727-32.755 3.286-32.755 3.28-3.276-32.726zm66.422-6.659l-3.29-32.726 65.51-6.574 6.572 65.41-32.755 3.28-32.755 3.286-3.282-32.676zm63.131-39.42l32.755-3.288 32.755-3.28 6.58 65.453-65.51 6.574-6.58-65.46zm136.197 19.4l-3.282-32.726 32.755-3.28 32.755-3.286 6.58 65.452-32.756 3.28-32.755 3.286-3.297-32.726zm66.422-6.666l-3.283-32.726 65.51-6.567 6.58 65.453-65.51 6.573-3.297-32.733zm66.421-6.659l-3.282-32.726 65.51-6.574 6.58 65.452-32.756 3.287-32.755 3.28-3.297-32.719zm66.422-6.66l-3.283-32.725 32.755-3.28 32.755-3.287 6.572 65.452-32.755 3.28-32.755 3.287-3.29-32.726zm63.103-39.398l32.755-3.287 32.755-3.28 3.29 32.726 3.282 32.726-65.51 6.574-6.572-65.46zm69.711 26.06l-3.29-32.727 32.755-3.286 32.599-3.266 6.572 65.452-32.577 3.259-32.755 3.28-3.304-32.712zm125.117-79.418l3.283 32.726-32.755 3.28-32.599 3.272-6.572-65.452 32.598-3.265 32.755-3.287 3.29 32.726zm-3.382-33.637l-32.755 3.28-32.599 3.273-6.579-65.453 32.598-3.265 32.755-3.287 6.58 65.452zm-9.97-99.089l3.29 32.726-32.712 3.245-32.59 3.272-6.58-65.452 32.598-3.265 32.755-3.287 3.24 32.761zm-6.636-66.384l3.283 32.726-32.755 3.28-32.598 3.273-6.573-65.452 32.599-3.266 32.755-3.287 3.29 32.726zm-9.961-99.081l6.58 65.452-32.756 3.286-32.598 3.266-6.573-65.452 32.592-3.266 32.755-3.286zm-.086-.918l-32.755 3.287-32.591 3.265-6.58-65.452 65.347-6.552 6.58 65.452zm-9.969-99.118l3.29 32.727-65.346 6.552-6.573-65.452 32.592-3.266 32.755-3.287 3.282 32.726zm-6.658-66.34l3.29 32.725-32.755 3.28-32.591 3.272-6.58-65.452 32.599-3.265 32.755-3.287 3.282 32.726zm-6.664-66.357l3.282 32.726-32.755 3.287-32.605 3.237-6.573-65.452 32.599-3.265 32.755-3.287 3.297 32.754zm-9.97-99.088l3.283 32.726 3.29 32.726-32.755 3.287-32.598 3.265-6.573-65.452 65.354-6.552zm-66.435 6.538l6.572 65.452-32.598 3.272-32.755 3.287-6.572-65.452 65.353-6.56zm-66.258 6.659l6.58 65.452-32.755 3.28-32.755 3.286-3.283-32.726-3.29-32.726 65.503-6.566zm-66.414 6.659l3.283 32.726 3.29 32.726-32.756 3.287-32.755 3.28-3.282-32.727-3.29-32.726 65.51-6.566zm-66.422 6.666l3.283 32.726 3.29 32.726-65.51 6.574-3.283-32.726-3.29-32.726 65.51-6.574zm-66.421 6.595l3.283 32.726 3.29 32.726-65.51 6.567-6.573-65.453 65.51-6.566zm-66.422 6.659l6.573 65.452-32.72 3.301-32.755 3.28-3.282-32.726-3.29-32.726 65.474-6.581zm-66.421 6.666l3.283 32.726 3.29 32.726-65.51 6.574-3.283-32.726-3.29-32.726 65.51-6.574zm-66.421 6.66l3.282 32.725 3.29 32.726-32.755 3.28-32.755 3.287-6.572-65.452 65.51-6.567zm-66.422 6.694l6.572 65.41v.035l-65.51 6.566-3.29-32.726-3.282-32.726 65.51-6.56zm-66.414 6.666l3.29 32.726 3.282 32.726-65.51 6.574-3.29-32.726-3.282-32.726 65.51-6.574zm-66.422 6.659l3.29 32.726 3.283 32.726-32.755 3.28-32.755 3.287-3.098-30.92-3.46-34.476 65.495-6.623zm-66.421 6.659l3.468 34.47 3.111 30.975-31.003 3.145-34.5 3.457-3.29-32.726-3.282-32.726 65.496-6.595zm-66.422 6.695l6.58 65.452-65.51 6.573-6.573-65.452 65.503-6.573zm-66.435 6.623l6.572 65.452-32.755 3.28-32.755 3.287-6.58-65.452 65.518-6.567zm-66.422 6.66l6.572 65.451-34.478 3.45-31.003 3.11-6.58-65.452 65.49-6.56zm-66.421 6.637l3.29 32.726 3.282 32.726-65.51 6.574-6.58-65.452 65.518-6.574zm-66.422 6.659l3.29 32.726 3.283 32.726-65.51 6.567-6.573-65.453 65.51-6.566zm-66.421 6.659l6.58 65.452-32.756 3.287-32.755 3.28-3.268-32.69-3.283-32.727 65.482-6.602zm-66.422 6.666l6.58 65.452-65.51 6.574-3.29-32.726-3.283-32.726 65.503-6.574zm-66.421 6.66l6.58 65.451-32.756 3.28-32.755 3.287-3.29-32.726-3.282-32.726 65.503-6.567zm-66.422 6.658l6.58 65.452-32.755 3.287-32.577 3.287-6.58-65.452 65.332-6.574zm-66.428 6.538l6.572 65.452-32.598 3.273-32.755 3.287-6.58-65.452 65.36-6.56zm-66.272 6.645l6.572 65.452-32.755 3.28-32.755 3.287-6.58-65.452 65.518-6.567zm-66.422 6.66l3.29 32.725 3.283 32.726-32.755 3.287-32.755 3.28-3.29-32.726-3.283-32.726 65.51-6.567zm-66.421 6.665l3.29 32.726 3.282 32.726-65.51 6.574-3.29-32.726-3.282-32.726 65.51-6.574zm-66.422 6.66l6.58 65.451-65.51 6.567-6.573-65.452 65.503-6.567zm-66.442 6.687l6.579 65.452-32.755 3.287-32.755 3.28-3.29-32.727-3.282-32.726 65.503-6.566zm-66.422 6.666l6.58 65.452-65.51 6.574-3.29-32.726-3.283-32.726 65.503-6.574zm-66.421 6.659l6.58 65.452-65.51 6.56v-.064l-6.566-65.374 65.496-6.574zm-66.429 6.595l6.58 65.452-65.468 6.567-6.58-65.452 65.468-6.567zm-66.329 6.66l3.29 32.725 3.282 32.726-32.755 3.28-32.755 3.287-6.579-65.452 65.517-6.567zm-66.421 6.658l3.29 32.726 3.282 32.726-32.755 3.287-32.755 3.28-3.112-30.969-3.468-34.47 65.518-6.58zm-66.422 6.666l3.46 34.47 3.113 30.968-30.997 3.11-34.5 3.464-6.579-65.452 65.503-6.56zm-66.421 6.66l3.29 32.725 3.282 32.726-32.755 3.28-32.755 3.287-6.58-65.452 65.518-6.567zm-66.436 6.623l6.572 65.452-32.755 3.287-32.755 3.28-6.58-65.453 65.518-6.566zm-66.457 6.694l6.572 65.453-34.5 3.464-31.003 3.11-3.282-32.727-3.29-32.726 65.503-6.574zm-66.422 6.66l3.283 32.726 3.29 32.726-32.755 3.28-32.755 3.286-6.58-65.452 65.517-6.567zm-66.4 6.63l3.29 32.726 3.283 32.726-65.51 6.567-6.58-65.452 65.517-6.567zm-66.421 6.666l6.572 65.452-65.51 6.574-6.58-65.452 65.518-6.574zm-128.685 45.952l-3.29-32.726 65.51-6.567 3.29 32.726 3.283 32.726-32.755 3.28-32.755 3.287-3.283-32.726zm6.665 66.363l-3.282-32.726 32.755-3.28 32.755-3.287 6.58 65.452-65.51 6.574-3.298-32.733zm6.672 66.362l-3.29-32.726 65.51-6.566 6.573 65.452-65.51 6.574-3.283-32.734zm3.376 33.637l32.755-3.287 32.755-3.28 3.29 32.727 3.282 32.726-65.51 6.573-6.572-65.459zm9.968 99.117l-3.29-32.726 65.51-6.566 3.283 32.726 3.29 32.726-32.755 3.28-32.755 3.286-3.283-32.726zm6.665 66.363l-3.29-32.726 32.756-3.28 32.755-3.286 3.29 32.726 3.282 32.726-65.51 6.573-3.283-32.733zm6.665 66.363l-3.282-32.726 32.755-3.28 32.755-3.287 6.58 65.452-65.51 6.574-3.298-32.733zm3.425 33.637l32.755-3.287 32.755-3.28 3.283 32.726 3.29 32.726-65.51 6.574-6.573-65.46zm9.97 99.081l-3.29-32.726 32.755-3.287 32.755-3.28 3.29 32.727 3.282 32.726-65.51 6.574-3.283-32.734zm6.664 66.363l-3.282-32.726 32.755-3.287 32.755-3.28 6.58 65.453-65.51 6.573-3.298-32.733zm6.672 66.363l-3.29-32.726 32.756-3.287 32.755-3.28 3.282 32.726 3.29 32.726-65.51 6.574-3.283-32.733zm9.97 99.089l-6.58-65.452 32.755-3.287 32.755-3.28 3.29 32.726 3.282 32.726-65.503 6.567zm66.42-6.666l-6.579-65.453 65.51-6.573 6.573 65.452-65.503 6.574zm66.358-6.674l-6.55-65.452 32.754-3.28 32.755-3.286 6.572 65.452-65.53 6.566zm66.422-6.659l-6.58-65.452 34.5-3.457 31.003-3.11 3.283 32.727 3.29 32.726-65.496 6.566zm66.414-6.666l-3.283-32.726-3.29-32.726 65.51-6.574 6.573 65.452-65.51 6.574zm66.421-6.659l-6.572-65.452 65.51-6.567 6.572 65.452-65.51 6.567zm66.443-6.623l-6.58-65.453 32.756-3.286 32.755-3.28 3.29 32.726 3.282 32.726-65.503 6.567zm66.422-6.667l-6.58-65.452 65.51-6.573 3.29 32.726 3.283 32.726-65.503 6.573zm66.421-6.659l-6.58-65.452 32.756-3.28 32.755-3.286 3.29 32.726 3.282 32.726-65.503 6.566zm66.422-6.659l-6.58-65.452 32.755-3.287 32.755-3.28 3.112 30.97 3.46 34.469-65.502 6.58zm66.421-6.666l-3.468-34.462-3.111-30.976 32.755-3.287 32.755-3.28 6.58 65.453-65.51 6.552zm66.422-6.595l-6.573-65.452 65.467-6.567 6.58 65.453-65.474 6.566zm66.393-6.659l-6.573-65.452 65.51-6.574 6.58 65.452-65.517 6.574zm66.421-6.659l-3.29-32.726-3.282-32.726 32.755-3.28 32.755-3.287 6.58 65.453-65.518 6.566zm66.421-6.659l-3.29-32.726-3.282-32.726 32.755-3.287 32.755-3.28 3.29 32.726 3.282 32.726-65.51 6.567zm66.422-6.666l-6.58-65.452 65.51-6.574 3.29 32.726 3.283 32.726-65.503 6.574zm66.421-6.66l-6.58-65.451 32.756-3.28 32.755-3.287 3.29 32.726 3.282 32.726-65.503 6.567zm66.422-6.658l-6.58-65.452 65.51-6.567 3.29 32.726 3.283 32.726-65.503 6.567zm66.421-6.666l-6.58-65.453 32.756-3.286 32.598-3.273 6.573 65.452-65.347 6.56zm66.429-6.531l-6.572-65.452 32.598-3.266 32.755-3.287 6.58 65.452-65.361 6.553zm66.272-6.645l-3.29-32.726-3.283-32.726 65.51-6.567 6.58 65.452-65.517 6.567zm66.421-6.666l-6.572-65.452 65.51-6.574 6.58 65.452-65.518 6.574zm66.422-6.66l-3.29-32.725-3.283-32.726 32.755-3.28 32.755-3.287 6.573 65.452-65.51 6.567zm66.421-6.658l-6.58-65.453 32.756-3.286 32.755-3.28 6.572 65.452-65.503 6.567zm66.422-6.667l-6.58-65.452 34.5-3.464 31.003-3.11 3.29 32.727 3.283 32.726-65.496 6.573zm66.421-6.659l-6.58-65.452 32.756-3.28 32.755-3.286 6.572 65.452-65.503 6.566zm66.422-6.659l-6.58-65.452 65.51-6.566 6.573 65.452-65.503 6.566zm66.435-6.63l-6.572-65.452 65.51-6.574 6.58 65.452-65.518 6.574zm66.422-6.66l-3.29-32.725-3.282-32.726 65.51-6.574 6.579 65.452-65.517 6.574zm66.421-6.658l-3.29-32.726-3.282-32.726 32.755-3.287 32.755-3.28 3.29 32.726 3.282 32.726-65.51 6.567zm66.422-6.666l-6.58-65.453 65.51-6.573 3.112 30.976 3.46 34.469-65.502 6.58zm66.421-6.66l-3.467-34.469-3.112-30.976 32.755-3.28 32.755-3.286 6.58 65.452-65.51 6.56zm66.415-6.694l-6.573-65.452 65.51-6.567 6.573 65.452-65.51 6.567zm66.414-6.666l-6.572-65.452 65.51-6.574 3.282 32.726 3.29 32.726-65.51 6.574zm66.421-6.66l-3.282-32.725-3.29-32.726 32.755-3.28 32.755-3.287 3.283 32.726 3.29 32.726-65.51 6.567zm66.422-6.658l-3.283-32.726-3.29-32.727 32.756-3.286 32.755-3.28 3.282 32.726 3.29 32.726-65.51 6.567zm66.421-6.667l-3.282-32.726-3.29-32.726 65.51-6.573 6.58 65.452-65.518 6.573zm66.422-6.659l-3.283-32.726-3.29-32.726 32.755-3.28 32.756-3.286 6.579 65.452-65.517 6.566zm66.421-6.659l-3.29-32.726-3.282-32.726 65.51-6.566 6.58 65.452-65.518 6.566zm66.422-6.666l-3.29-32.726-3.283-32.726 32.755-3.287 32.599-3.272 6.572 65.452-65.353 6.56zm66.436-6.53l-6.573-65.453 32.591-3.265 32.755-3.287 3.283 32.726 3.29 32.726-65.347 6.552z" fill="url(#a)" fill-rule="nonzero"/></g></svg>