<svg width="1440" height="900" xmlns="http://www.w3.org/2000/svg"><defs><linearGradient x1="41.21%" y1="8.592%" x2="57.23%" y2="84.05%" id="a"><stop stop-color="#1C1684" offset="0%"/><stop stop-color="#140B69" offset="59%"/><stop stop-color="#10055B" offset="100%"/></linearGradient></defs><g fill="none" fill-rule="evenodd"><path d="M0 0h1440v900H0z"/><g transform="translate(154 83)" fill-rule="nonzero"><path d="M914.09 0H7a7 7 0 00-7 7v707.66a7 7 0 007 7h907.09a7 7 0 007-7V7a7 7 0 00-7-7z" fill="url(#a)"/><rect fill="#0C022F" opacity=".4" x="510.08" y="49.88" width="98.82" height="34.09" rx="17.04"/><rect fill="#0C022F" opacity=".4" x="626.39" y="49.88" width="98.82" height="34.09" rx="17.04"/><rect fill="#0C022F" opacity=".4" x="748.7" y="49.88" width="124.59" height="34.09" rx="17.04"/><path d="M409 131.55H221.71a2.51 2.51 0 00-2.52 2.51V268a2.52 2.52 0 002.52 2.52H409a2.52 2.52 0 002.52-2.52V134.06a2.51 2.51 0 00-2.52-2.51zM221.09 57.54h117.69v21.93H221.09zM221.09 39.72h45.4v8.36h-45.4zM448.29 130.18h51.74v8.36h-51.74zM448.29 145.63h107.64v8.36H448.29zM448.29 180.7h51.74v8.36h-51.74zM448.29 196.16h58.97v8.36h-58.97zM221.53 359.88h70.12v11.33h-70.12zM221.53 390.44h183.4v11.33h-183.4zM555.14 180.7h69.9v8.36h-69.9zM687.32 180.7h61.06v8.36h-61.06zM687.32 196.16h30.28v8.36h-30.28zM815.56 180.7h61.06v8.36h-61.06zM815.56 196.16h30.28v8.36h-30.28zM448.29 245.57h61.06v8.36h-61.06zM448.29 262.11h126.16v8.36H448.29zM448.29 483.04h61.06v8.36h-61.06zM448.29 499.58h126.16v8.36H448.29zM686.8 245.57h61.06v8.36H686.8zM686.8 262.11h76.86v8.36H686.8zM555.14 196.16h17.9v8.36h-17.9zM448.29 420.18h51.74v8.36h-51.74zM448.29 435.63h58.97v8.36h-58.97zM555.14 420.18h69.9v8.36h-69.9zM555.14 435.63h17.9v8.36h-17.9zM449.93 357.33h28.15v8.36h-28.15zM449.93 375h57.19v8.36h-57.19zM572.9 357.33h28.15v8.36H572.9zM572.9 375h33.25v8.36H572.9zM696.64 357.33h86.4v8.36h-86.4zM696.64 375H750v8.36h-53.36zM221.53 581.53h70.12v11.33h-70.12zM221.53 612.09h183.4v11.33h-183.4zM449.93 578.97h28.15v8.36h-28.15zM449.93 596.65h57.19v8.36h-57.19zM572.9 578.97h28.15v8.36H572.9zM572.9 596.65h33.25v8.36H572.9zM696.64 578.97h86.4v8.36h-86.4zM696.64 596.65H750v8.36h-53.36z" fill="#0C022F" opacity=".4"/></g></g></svg>