<svg width="753" height="160" xmlns="http://www.w3.org/2000/svg"><defs><linearGradient x1="50%" y1="24.728%" x2="50%" y2="125.983%" id="a"><stop stop-color="#5333ED" offset="0%"/><stop stop-color="#120667" offset="100%"/></linearGradient></defs><g fill="none" fill-rule="evenodd"><path d="M270.773 120C293.443 120 312 101.384 312 78.381 312 55.616 293.442 37 270.773 37h-28.659C240.94 37 240 38.067 240 39.253v78.494c0 1.186.94 2.253 2.114 2.253h28.66zm.495-17H259V55h12.268C284.471 55 293 65.548 293 78.94c0 13.512-8.53 24.06-21.732 24.06zm77.203 18c8.588 0 15.411-2.95 20.117-7.789 1.177-1.18.941-2.832.118-3.894l-6-7.907c-.824-1.062-2.235-1.062-3.412 0-2.353 1.652-6.823 3.422-10.353 3.422-7.412 0-11.294-5.192-11.294-9.44h33.53c1.176 0 2.47-.945 2.588-2.36.117-.827.235-2.715.235-3.541C374 74.503 362 64 348.235 64 332.118 64 320 77.1 320 92.441 320 109.317 332.235 121 348.47 121zM356 85h-16c.706-3.807 3.647-7 8.118-7 4.588 0 7.647 3.193 7.882 7zm48.68 36c.823 0 2-.71 2.353-1.42l24.59-50.791c1.059-1.894-.235-3.789-2.353-3.789h-12.243c-1.308.016-2.122.183-2.7 1.54l-9.765 22.139h-.353l-9.295-22.14c-.353-.947-1.412-1.539-2.47-1.539h-12.825c-2 0-3.177 1.895-2.353 3.789l24.472 50.79c.47.71 1.412 1.421 2.236 1.421h.706zm51.984-1c1.536 0 2.836-1.304 2.836-2.846v-34.86l27.3 36.757c.237.356 1.3.83 2.128.83h16.31c2.245 0 3.545-2.608 2.245-4.387l-30.137-38.891 27.655-35.216c1.3-1.778.118-4.387-2.127-4.387h-14.891c-.71 0-1.773.593-2.246 1.186L459.5 71.504V39.846c0-1.542-1.3-2.846-2.836-2.846h-13.828c-1.654 0-2.836 1.304-2.836 2.846v77.308c0 1.542 1.182 2.846 2.836 2.846h13.828zm67.278-62C529.492 58 534 53.293 534 47.62c0-5.792-4.509-10.62-10.058-10.62-5.549 0-9.942 4.828-9.942 10.62 0 5.673 4.393 10.38 9.942 10.38zm6.453 62c1.42 0 2.605-1.19 2.605-2.619V67.619c0-1.548-1.184-2.619-2.605-2.619h-12.79c-1.42 0-2.605 1.071-2.605 2.619v49.762c0 1.429 1.184 2.619 2.605 2.619h12.79zm31.134 0c1.883 0 2.471-1.424 2.471-2.61V90.22c0-5.576 2.824-9.373 8.235-9.373 6.118 0 7.883 4.865 7.883 10.085v26.458c0 1.424 1.058 2.61 2.588 2.61h12.823c1.295 0 2.471-1.186 2.471-2.61V91.17C598 76.101 592.235 64 575.294 64c-9.882 0-14 4.983-16.941 8.305l-2-5.458c-.588-1.067-1.647-1.66-2.47-1.66h-5.295c-1.412 0-2.588 1.067-2.588 2.61v49.593c0 1.424 1.176 2.61 2.588 2.61h12.941zm68.323 1c14.49 0 22.148-7.907 22.148-17.348 0-10.975-8.953-15.341-19.91-19.354-3.887-1.416-6.126-2.596-6.126-4.012 0-1.416.825-2.243 3.888-2.243 4.359 0 9.071 1.535 12.723 3.305 1.06.472 2.474 0 2.828-.944l4.24-8.733c.708-1.416 0-2.832-1.413-3.54C644.107 66.005 636.685 64 629.616 64 615.48 64 609 71.199 609 80.994c0 8.733 5.42 13.571 15.904 17.702 6.362 2.478 9.307 3.894 9.307 5.664 0 1.298-.59 2.597-4.123 2.597-4.948 0-9.072-1.299-13.43-3.423-1.179-.59-2.474.236-2.828 1.18l-4.359 8.97c-.589 1.18-.235 2.123.943 2.832 3.534 2.124 10.602 4.484 19.438 4.484zm51.57 1c5.826 0 12.009-1.544 15.694-3.088 1.546-.713 2.14-1.426 1.784-3.089l-2.378-10.333c-.357-1.426-1.665-2.02-3.091-1.663-1.308.356-4.875 1.187-6.777 1.187-2.378 0-3.686-1.187-3.686-3.8V82.09h11.057c1.427 0 2.616-1.188 2.616-2.613V68.43c0-1.544-1.19-2.613-2.616-2.613h-11.057V50.613c0-1.425-1.07-2.613-2.378-2.613h-13.078c-1.427 0-2.616 1.188-2.616 2.613v15.204h-4.518c-1.308 0-2.378 1.069-2.378 2.613v11.047c0 1.425 1.07 2.613 2.378 2.613h4.518v20.786c0 12.472 6.063 19.124 16.526 19.124zm42.448-1c8.61 0 13.209-3.894 16.51-6.727l1.77 3.659c.707 1.534 1.651 1.77 2.477 1.77h5.778c1.298 0 2.595-1.18 2.595-2.596V87.012C753 70.845 747.103 64 730.238 64c-7.312 0-16.865 1.298-18.162 1.77-1.18.354-2.476 1.416-2.123 3.777l1.298 8.378c.235 2.007 1.179 3.54 3.302 2.833 3.538-1.062 9.906-1.888 13.68-1.888 6.369 0 7.548 3.068 7.548 8.378 0 0-4.6-2.36-10.732-2.36-12.383 0-20.049 7.671-20.049 18.174C705 113.92 713.138 121 723.87 121zm5.072-13c-3.262 0-5.942-2.706-5.942-6 0-3.176 2.68-6 5.942-6S735 98.824 735 102c0 3.294-2.796 6-6.058 6z" fill="#FFF" fill-rule="nonzero"/><path d="M42.984 0h73.62c13.789 0 19.837 1.168 26.102 4.519 5.508 2.945 9.83 7.267 12.775 12.775C158.832 23.559 160 29.607 160 43.395v73.21c0 13.788-1.168 19.836-4.519 26.101-2.945 5.508-7.267 9.83-12.775 12.775-6.265 3.351-12.313 4.519-26.101 4.519h-73.21c-13.788 0-19.836-1.168-26.101-4.519-5.508-2.945-9.83-7.267-12.775-12.775C1.2 136.503.024 130.514 0 117.016v-73.62c0-13.789 1.168-19.837 4.519-26.102 2.945-5.508 7.267-9.83 12.775-12.775C23.497 1.2 29.486.024 42.984 0z" fill="#000" fill-rule="nonzero"/><path d="M42.984 0h73.62c13.789 0 19.837 1.168 26.102 4.519 5.508 2.945 9.83 7.267 12.775 12.775C158.832 23.559 160 29.607 160 43.395v73.21c0 13.788-1.168 19.836-4.519 26.101-2.945 5.508-7.267 9.83-12.775 12.775-6.265 3.351-12.313 4.519-26.101 4.519h-73.21c-13.788 0-19.836-1.168-26.101-4.519-5.508-2.945-9.83-7.267-12.775-12.775C1.2 136.503.024 130.514 0 117.016v-73.62c0-13.789 1.168-19.837 4.519-26.102 2.945-5.508 7.267-9.83 12.775-12.775C23.497 1.2 29.486.024 42.984 0z" fill="url(#a)"/><g><path d="M123.146 43.743c1.952-2.244.34-5.743-2.64-5.743h-16.838a3.474 3.474 0 00-2.645 1.215l-33.866 39.02a3.43 3.43 0 000 4.535l33.866 39.015a3.474 3.474 0 002.645 1.215h16.839c2.98 0 4.591-3.499 2.639-5.749L93.07 82.77a3.446 3.446 0 010-4.545l30.075-34.482zM61.676 38H46.527C44.58 38 43 39.544 43 41.459v78.065c0 1.915 1.58 3.476 3.528 3.476h15.147c1.942 0 3.517-1.561 3.517-3.476V41.46c0-1.915-1.575-3.459-3.517-3.459z" fill="#000" fill-rule="nonzero"/><path d="M123.146 43.743c1.952-2.244.34-5.743-2.64-5.743h-16.838a3.474 3.474 0 00-2.645 1.215l-33.866 39.02a3.43 3.43 0 000 4.535l33.866 39.015a3.474 3.474 0 002.645 1.215h16.839c2.98 0 4.591-3.499 2.639-5.749L93.07 82.77a3.446 3.446 0 010-4.545l30.075-34.482zM61.676 38H46.527C44.58 38 43 39.544 43 41.459v78.065c0 1.915 1.58 3.476 3.528 3.476h15.147c1.942 0 3.517-1.561 3.517-3.476V41.46c0-1.915-1.575-3.459-3.517-3.459z" fill="#FFF"/></g></g></svg>